<svg width="512" height="619" viewBox="0 0 512 619" fill="none" xmlns="http://www.w3.org/2000/svg">
<path d="M64.15 135.86C68.6731 140.467 73.5482 144.711 78.016 149.376C82.4454 154 86.4528 159.191 90.0177 164.504C92.5544 168.285 94.5384 172.294 96.4887 176.396C98.2913 180.187 100.514 183.999 101.645 188.066C103.651 195.279 103.962 203.608 101.525 210.773C100.201 214.667 98.709 218.935 95.2787 221.484C93.3667 222.905 90.9595 224.58 88.6908 225.373C85.8336 226.372 81.8806 225.761 79.0196 225.194C71.4597 223.695 64.538 219.473 58.2935 215.121C54.135 212.223 50.4231 209.059 47.3034 205.045C45.8088 203.123 44.6677 200.73 43.6085 198.547C42.7208 196.717 42.1662 194.902 41.6555 192.913C40.6048 188.822 38.8772 184.05 39.1491 179.756C39.3457 176.652 39.7613 173.606 40.1077 170.516C40.5736 166.36 40.1869 162.149 41.4038 158.106C42.9107 153.1 45.2209 147.806 48.3904 143.64C51.3344 139.772 55.8207 136.01 60.2306 133.913C60.7707 133.656 62.0069 132.763 62.6386 133.222C66.696 136.165 70.5049 139.039 74.1322 142.544" stroke="#F77B29" stroke-width="10" stroke-linecap="round"/>
<path d="M52.272 136.066C52.0964 135.535 51.1052 136.348 50.5263 136.624C46.4963 138.54 42.1354 140.202 38.4346 142.706C31.0143 147.726 24.2316 153.933 17.7512 160.101C12.9322 164.687 8.2329 169.494 3.74987 174.409C-1.61954 180.297 -7.07118 186.197 -12.7313 191.802C-14.0245 193.082 -15.2336 194.453 -16.4567 195.796C-17.3289 196.754 -18.481 197.514 -19.2714 198.525C-20.101 199.587 -21.5205 200.754 -21.549 202.194C-21.588 204.164 -21.169 206.25 -20.4621 208.073C-17.8788 214.735 -14.1934 220.384 -9.95374 226.134C-4.96072 232.905 -0.350095 239.962 4.70145 246.684C7.26411 250.093 10.1799 252.928 13.2787 255.85C13.7035 256.251 14.3808 256.864 14.6903 257.356C14.7977 257.527 15.9832 257.638 16.2951 257.742C17.8648 258.267 19.7267 258.344 21.3449 258.123C23.3156 257.854 25.3723 256.932 27.2213 256.236C29.9346 255.215 32.659 254.246 35.3562 253.184C39.5358 251.539 43.5589 249.345 47.6128 247.417C52.0974 245.284 56.582 243.152 61.0667 241.02C65.7172 238.808 70.6533 237.278 75.2812 235.077C76.9788 234.27 78.6765 233.462 80.3742 232.655C81.8046 231.975 83.5488 231.331 84.3859 229.931" stroke="#F77B29" stroke-width="10" stroke-linecap="round"/>
<path d="M27.4268 158.221C27.5617 158.81 27.0716 160.244 26.9955 160.875C26.5884 164.251 26.2473 167.574 26.1298 170.979C25.8386 179.418 25.6294 188.018 26.6891 196.417C28.3233 209.367 31.916 222.015 34.4497 234.805C35.1056 238.116 35.6024 241.632 35.7626 245.007C35.792 245.627 36.2988 247.911 35.9779 248.322" stroke="#F77B29" stroke-width="10" stroke-linecap="round"/>
<path d="M2.08301 183.336C2.68118 184.594 2.88538 185.691 3.00436 187.086C3.4194 191.952 3.48542 196.834 3.59437 201.714C3.72368 207.505 3.77363 213.246 3.53887 219.022C3.38045 222.92 3.45705 227.003 3.60911 230.903C3.67209 232.519 4.0386 233.965 4.56873 235.497" stroke="#F77B29" stroke-width="10" stroke-linecap="round"/>
<path d="M38.2699 193.617C29.5139 197.781 19.0072 197.084 9.62043 198.743C4.45127 199.656 -0.443786 201.306 -5.53976 202.474C-8.08025 203.056 -10.6087 203.352 -13.2062 203.458C-14.6318 203.516 -16.1479 204.041 -17.5625 203.836" stroke="#F77B29" stroke-width="10" stroke-linecap="round"/>
<path d="M54.8985 220.003C41.3536 223.632 27.8304 227.115 14.1421 230.129C8.40168 231.393 2.55724 232.332 -2.93057 234.513C-3.71682 234.825 -6.91843 237.048 -8.09134 236.347" stroke="#F77B29" stroke-width="10" stroke-linecap="round"/>
<path d="M86.8276 228.771C83.7625 236.247 82.713 244.296 81.282 252.214C79.0201 264.727 77.8512 277.393 75.5216 289.895C74.4853 295.456 73.2335 301.071 72.4231 306.654" stroke="#F77B29" stroke-width="10" stroke-linecap="round"/>
<path d="M91.8568 230.19C92.3187 231.161 92.8693 231.864 93.653 232.632C96.707 235.625 100.032 238.322 103.295 241.08C109.192 246.065 114.429 251.762 119.845 257.252C122.797 260.244 125.795 263.175 128.657 266.246C129.012 266.626 130.421 268.67 130.68 268.338" stroke="#F77B29" stroke-width="10" stroke-linecap="round"/>
<path d="M54.2279 248.354C59.5449 252.412 65.3537 255.843 70.3726 260.302C73.8479 263.391 77.2672 266.503 80.856 269.44C82.0253 270.396 83.1592 271.549 84.5166 272.114C84.7756 272.222 85.4388 272.911 85.7366 273.122C86.2631 273.493 86.8047 273.834 87.2464 274.294" stroke="#F77B29" stroke-width="10" stroke-linecap="round"/>
<path d="M51.7534 251.164C51.3939 252.621 51.3879 254.417 51.2928 255.919C51.0823 259.244 50.6711 262.49 50.2423 265.793C49.2811 273.197 48.0654 280.584 46.9329 287.96C46.6892 289.547 46.1015 291.051 45.8759 292.605" stroke="#F77B29" stroke-width="10" stroke-linecap="round"/>
<path d="M58.0966 141.622C59.8065 142.393 62.1382 143.107 63.0159 144.953" stroke="#F77B29" stroke-width="10" stroke-linecap="round"/>
<path d="M53.7042 145.71C56.0406 145.078 60.0331 147.639 62.0686 148.57C64.7452 149.795 66.1288 151.142 68.409 153.097C71.3845 155.648 75.0944 158.097 77.2099 161.513C77.6782 162.269 77.0016 161.85 76.586 161.642C73.8175 160.261 70.6921 159.424 67.7801 158.399C59.1963 155.378 50.018 152.576 40.8478 152.342C40.4315 152.331 38.1736 152.06 39.8087 152.651C48.2793 155.71 56.8437 158.457 65.0158 162.289C71.0962 165.141 77.8743 168.372 83.181 172.589C85.1615 174.163 87.1385 175.583 88.8715 177.425C90.8625 179.542 86.9414 177.797 86.049 177.452C80.1486 175.166 73.8356 173.416 67.7409 171.722C63.3306 170.497 58.6933 169.499 54.1596 168.841C53.0631 168.682 50.325 168.141 53.035 168.931C63.6659 172.03 73.3282 177.035 82.7544 182.798C85.7119 184.607 88.6194 186.595 91.1889 188.924C91.4297 189.142 89.0049 188.626 88.8156 188.57C83.8501 187.1 79.0214 184.626 74.2936 182.541C67.7696 179.664 61.3733 176.203 54.4868 174.245C53.7494 174.035 52.8195 173.686 52.0344 173.724C51.1852 173.766 53.0767 175.11 53.7867 175.578C64.4869 182.627 75.6583 188.857 85.9404 196.552C89.6478 199.327 94.5877 202.333 97.3898 206.173C97.5824 206.437 98.3998 207.176 98.366 207.525C98.3374 207.82 92.6124 205.333 92.3187 205.212C83.9093 201.743 75.8522 197.433 67.419 194.037C65.5331 193.278 63.6147 192.509 61.699 191.828C61.0466 191.596 59.4944 190.883 58.7877 191.045C58.5457 191.1 61.2068 193.028 61.4033 193.155C65.1215 195.558 68.726 197.995 72.2732 200.661C75.9352 203.413 80.6641 206.329 83.5406 210.016C85.2442 212.199 82.7384 211.649 81.1478 211.024C72.4238 207.597 64.9167 201.513 56.5906 197.296C56.3751 197.187 52.8598 195.763 52.9565 195.967C53.3997 196.899 55.0212 197.941 55.7567 198.582C59.8548 202.157 64.2851 205.336 68.382 208.922C72.3723 212.415 76.8432 216.139 80.2692 220.243C81.4433 221.65 79.2512 220.444 78.6223 220.248C76.7819 219.676 75.0278 218.845 73.1496 218.403C72.2893 218.201 70.3043 217.247 69.787 218.112" stroke="#F77B29" stroke-width="10" stroke-linecap="round"/>
<path d="M-101.017 433.741C-57.0195 406.762 -19.5678 370.611 24.4038 343.648C25.4759 342.991 39.4203 333.749 40.1695 338.299C40.4696 340.122 39.0699 342.551 38.4613 344.127C36.0981 350.249 33.0419 356.207 30.9885 362.435C28.824 369 37.7249 363.983 40.1628 362.746C74.0097 345.581 105.447 323.926 138.911 306.051C142.682 304.036 148.62 300.956 152.711 299.131C153.936 298.584 158.119 296.409 159.945 296.97C161.652 297.494 157.359 304.598 156.863 305.418L156.831 305.472C153.751 310.597 149.944 315.173 146.259 319.858C146.107 320.052 142.602 324.682 143.552 324.371C148.387 322.788 153.19 319.2 157.536 316.683C168.798 310.16 180.014 303.627 191.523 297.539C207.088 289.305 223.05 280.004 239.869 274.525C243.044 273.491 246.374 272.746 244.468 276.871C241.895 282.441 238.382 287.585 235.197 292.811C233.585 295.458 227.728 302.787 229.392 306.356C230.819 309.416 239.826 306.753 241.709 306.322C258.472 302.483 274.575 295.736 290.913 290.493C300.438 287.436 313.155 281.966 323.555 283.932C326.441 284.478 328.081 286.59 328.298 289.467C328.896 297.37 320.277 315.48 331.25 319.619C338.273 322.268 347.207 319.862 354.25 318.585C371.06 315.538 387.733 311.613 404.703 309.508C418.7 307.771 432.495 308.146 446.433 310.098C459.692 311.954 472.763 313.033 486.12 313.83" stroke="#FF3755" stroke-width="10" stroke-linecap="round"/>
</svg>
