<svg width="211" height="32" viewBox="0 0 211 32" fill="none" xmlns="http://www.w3.org/2000/svg">
<path d="M3 15.5327C8.0033 15.5327 12.9833 14.7849 17.9238 14.0791C28.8134 12.5234 39.7493 10.9379 50.7109 10.009C67.0809 8.62167 83.5092 7.84144 99.9077 6.87561C115.756 5.94218 131.554 4.43816 147.425 3.90377C162.946 3.38118 178.411 3.0316 193.941 3.0316H203.761C204.918 3.0316 205.991 3.00912 207.088 3.32233M11.431 28.3246H47.2546C58.2604 28.3246 69.12 28.1878 80.074 27.0325C91.394 25.8386 102.642 24.347 114.024 23.8023C131.419 22.9698 148.813 22.8009 166.225 22.8009C170.145 22.8009 173.622 22.0454 177.434 21.6218C179.228 21.4225 180.984 21.0565 182.812 21.0565C184.065 21.0565 184.96 20.4751 186.156 20.4751" stroke="#5EA0C6" stroke-width="6" stroke-linecap="round"/>
</svg>
