<svg width="151" height="40" viewBox="0 0 151 40" fill="none" xmlns="http://www.w3.org/2000/svg">
<path d="M53.7499 27.3421V37.0122C53.7499 38.1879 52.7971 39.1379 51.6242 39.1379H41.9763C40.6976 39.1379 39.7085 38.0151 39.8673 36.7475L40.9455 28.1528C41.0681 27.1888 41.8259 26.4282 42.7898 26.3085L51.3595 25.2331C52.6299 25.0743 53.7499 26.0633 53.7499 27.3421Z" fill="#EDF0E7"/>
<path d="M53.7499 2.98703V12.6572C53.7499 13.9359 52.6271 14.9277 51.3595 14.7661L42.7898 13.6908C41.8259 13.5682 41.0653 12.8104 40.9455 11.8464L39.8673 3.2517C39.7085 1.98129 40.6976 0.861328 41.9763 0.861328H51.6242C52.7999 0.861328 53.7499 1.81413 53.7499 2.98703Z" fill="#EDF0E7"/>
<path d="M15.1 23.0043C15.1 24.0769 15.8968 24.9795 16.961 25.1133L26.4863 26.3085C27.4502 26.431 28.2108 27.1888 28.3306 28.1528L29.4088 36.7475C29.5676 38.0179 28.5786 39.1379 27.2998 39.1379H2.1257C0.950019 39.1379 0 38.1851 0 37.0122V2.98703C0 1.81413 0.952805 0.861328 2.1257 0.861328H27.2998C28.5786 0.861328 29.5676 1.98408 29.4088 3.2517L28.3306 11.8464C28.208 12.8104 27.4502 13.571 26.4863 13.6908L16.961 14.8859C15.8968 15.0197 15.1 15.9251 15.1 16.9949V23.0043Z" fill="#EDF0E7"/>
<path d="M62.0909 19.8169L59.7925 11.3838H60.8233L62.1884 16.6465C62.3723 17.3625 62.5422 18.0813 62.6927 18.8028C62.7651 18.4435 62.8431 18.0841 62.9295 17.7247C63.0159 17.3653 63.1078 17.0059 63.1997 16.6465L64.5927 11.3838H65.7684L67.1502 16.6465C67.245 17.0003 67.3341 17.3541 67.4177 17.708C67.5013 18.0618 67.5849 18.4156 67.6629 18.7694C67.7381 18.4156 67.8189 18.0618 67.9025 17.708C67.986 17.3541 68.0752 17.0003 68.1643 16.6465L69.5211 11.3838H70.5631L68.2535 19.8169H67.0639L65.5873 14.3843C65.5093 14.0945 65.4341 13.802 65.3672 13.5067C65.3004 13.2114 65.2335 12.9189 65.1694 12.6291C65.1081 12.9189 65.044 13.2114 64.9772 13.5067C64.9103 13.802 64.8351 14.0945 64.7571 14.3843L63.2861 19.8169H62.0853H62.0909Z" fill="#EDF0E7"/>
<path d="M72.3572 16.3205V19.8169H71.396V11.3838H72.3572V14.6768C72.5633 14.3536 72.8168 14.114 73.1122 13.958C73.4075 13.802 73.7418 13.7268 74.1123 13.7268C74.5163 13.7268 74.884 13.8132 75.2156 13.9887C75.5471 14.1642 75.8118 14.4261 76.0096 14.7771C76.2074 15.1281 76.3077 15.5683 76.3077 16.1004V19.8114H75.3465V16.1673C75.3465 15.6491 75.2239 15.2619 74.976 15C74.728 14.7381 74.3798 14.6072 73.9312 14.6072C73.4827 14.6072 73.1261 14.7409 72.8196 15.0083C72.5132 15.2758 72.3572 15.7132 72.3572 16.315V16.3205Z" fill="#EDF0E7"/>
<path d="M80.1998 19.9532C79.6147 19.9532 79.116 19.8195 78.7037 19.552C78.2914 19.2846 77.9738 18.914 77.7565 18.446C77.5392 17.9779 77.4277 17.4402 77.4277 16.8413C77.4277 16.2423 77.542 15.6934 77.7732 15.2226C78.0044 14.7518 78.322 14.3812 78.7288 14.111C79.1355 13.8408 79.6036 13.707 80.1329 13.707C80.6873 13.707 81.1693 13.838 81.5761 14.1026C81.9828 14.3673 82.2976 14.7351 82.5177 15.2059C82.7378 15.6767 82.8492 16.2228 82.8492 16.8413V17.1059H78.3777C78.4 17.691 78.5672 18.1674 78.882 18.5323C79.194 18.8973 79.6342 19.0812 80.1998 19.0812C80.626 19.0812 80.9743 18.9837 81.2445 18.7859C81.5148 18.5908 81.6931 18.3373 81.785 18.0281H82.7462C82.6709 18.4098 82.5149 18.7441 82.2753 19.0338C82.0357 19.3236 81.7404 19.5492 81.3838 19.7108C81.0272 19.8724 80.6316 19.9532 80.197 19.9532H80.1998ZM78.3889 16.2813H81.8853C81.8324 15.7575 81.6485 15.3396 81.3365 15.0304C81.0244 14.7211 80.6205 14.5651 80.1301 14.5651C79.6398 14.5651 79.2386 14.7211 78.9294 15.0304C78.6201 15.3396 78.439 15.7575 78.3861 16.2813H78.3889Z" fill="#EDF0E7"/>
<path d="M84.9079 16.3205V19.8169H83.9468V13.8409H84.8857V14.7185C85.0918 14.3786 85.3481 14.1279 85.6462 13.9691C85.9471 13.8075 86.2842 13.7295 86.6631 13.7295C87.0671 13.7295 87.4348 13.8159 87.7664 13.9914C88.0979 14.1669 88.3626 14.4288 88.5604 14.7798C88.7582 15.1308 88.8585 15.571 88.8585 16.1031V19.8141H87.8973V16.17C87.8973 15.6518 87.7747 15.2646 87.5268 15.0027C87.2788 14.7408 86.9306 14.6099 86.482 14.6099C86.0335 14.6099 85.6769 14.7436 85.3704 15.011C85.064 15.2785 84.9079 15.7159 84.9079 16.3177V16.3205Z" fill="#EDF0E7"/>
<path d="M95.0045 19.9086C94.4111 19.9086 93.9179 19.7554 93.5195 19.449C93.1211 19.1425 92.9233 18.694 92.9233 18.0978C92.9233 17.7551 92.9902 17.4765 93.1239 17.2592C93.2577 17.0447 93.436 16.8747 93.6616 16.7521C93.8845 16.6296 94.1408 16.5376 94.425 16.4708C94.7091 16.4067 95.0017 16.3565 95.2998 16.3175C95.6815 16.2646 95.9796 16.2256 96.1996 16.1977C96.417 16.1727 96.573 16.1281 96.6677 16.0668C96.7596 16.0055 96.807 15.8996 96.807 15.7492V15.6935C96.807 15.3703 96.69 15.1 96.4587 14.8911C96.2275 14.6794 95.9016 14.5735 95.4837 14.5735C95.0658 14.5735 94.7287 14.6738 94.4612 14.8772C94.1965 15.0778 94.0517 15.3285 94.0294 15.6266H93.0515C93.071 15.2616 93.1824 14.9357 93.3914 14.6515C93.5975 14.3673 93.8817 14.1417 94.2411 13.9745C94.6005 13.8074 95.0156 13.7266 95.4864 13.7266C96.1857 13.7266 96.7373 13.9077 97.1469 14.267C97.5564 14.6264 97.7598 15.1028 97.7598 15.6962V19.8167H96.8098V18.967H96.7875C96.7151 19.1091 96.6092 19.2539 96.4699 19.3988C96.3306 19.5437 96.1411 19.6635 95.9071 19.761C95.6703 19.8585 95.3722 19.9059 95.01 19.9059L95.0045 19.9086ZM95.141 19.0478C95.5338 19.0478 95.8514 18.9781 96.0966 18.836C96.3417 18.694 96.52 18.5101 96.6343 18.2844C96.7485 18.0588 96.8042 17.8136 96.8042 17.5545V16.8079C96.7318 16.8747 96.5423 16.936 96.2331 16.9917C95.9238 17.0474 95.5979 17.0976 95.2552 17.1477C95.024 17.1784 94.8067 17.2285 94.6005 17.3038C94.3943 17.3762 94.2272 17.4821 94.099 17.6158C93.9709 17.7495 93.9068 17.9306 93.9068 18.1563C93.9068 18.4349 94.0182 18.655 94.2383 18.8138C94.4584 18.9726 94.7593 19.0506 95.141 19.0506V19.0478Z" fill="#EDF0E7"/>
<path d="M99.1807 19.8169V13.841H100.097V14.7798H100.12C100.228 14.4706 100.404 14.2226 100.641 14.0332C100.877 13.8437 101.184 13.749 101.557 13.749C101.643 13.749 101.724 13.7518 101.797 13.7602C101.869 13.7685 101.925 13.7741 101.964 13.7825V14.7436C101.925 14.7325 101.852 14.7185 101.747 14.7018C101.638 14.6851 101.515 14.6768 101.376 14.6768C101.044 14.6768 100.755 14.7938 100.51 15.0278C100.264 15.2618 100.142 15.6323 100.142 16.1366V19.8141H99.1807V19.8169Z" fill="#EDF0E7"/>
<path d="M105.706 13.8409V14.6683H104.494V18.3681C104.494 18.5993 104.541 18.7581 104.639 18.8529C104.733 18.9448 104.906 18.9922 105.151 18.9922H105.706V19.8196H105.059C104.04 19.8196 103.533 19.371 103.533 18.474V14.6711H102.468V13.8437H103.533V12.2139H104.494V13.8437H105.706V13.8409Z" fill="#EDF0E7"/>
<path d="M60.3945 28.6175V22.6416H61.3334V23.6083C61.5229 23.2573 61.7736 22.9898 62.0856 22.8059C62.3977 22.6221 62.7375 22.5273 63.1053 22.5273C63.512 22.5273 63.8686 22.6304 64.1751 22.8394C64.4816 23.0455 64.6961 23.3018 64.8214 23.6027C64.983 23.2963 65.2282 23.0427 65.5514 22.8366C65.8745 22.6304 66.2618 22.5273 66.7048 22.5273C67.0697 22.5273 67.4041 22.6054 67.7049 22.7642C68.0058 22.923 68.2454 23.1625 68.4237 23.4829C68.602 23.8033 68.6912 24.2101 68.6912 24.7004V28.6175H67.73V24.7004C67.73 24.2351 67.5991 23.9064 67.34 23.7086C67.0809 23.5108 66.7772 23.4105 66.4345 23.4105C65.9971 23.4105 65.6517 23.5442 65.4009 23.8089C65.1502 24.0736 65.0248 24.4107 65.0248 24.8146V28.6175H64.0637V24.6001C64.0637 24.2407 63.9439 23.9538 63.7043 23.7365C63.4647 23.5192 63.1638 23.4105 62.8016 23.4105C62.5537 23.4105 62.3169 23.469 62.0968 23.586C61.8767 23.703 61.6984 23.8785 61.5619 24.1098C61.4253 24.341 61.3585 24.6308 61.3585 24.9734V28.6175H60.3973H60.3945Z" fill="#EDF0E7"/>
<path d="M72.5831 28.752C71.998 28.752 71.4993 28.6183 71.087 28.3508C70.6747 28.0834 70.3571 27.7129 70.1398 27.2448C69.9197 26.774 69.811 26.2391 69.811 25.6401C69.811 25.0411 69.9253 24.4923 70.1565 24.0214C70.3877 23.5506 70.7053 23.1801 71.1121 22.9098C71.5188 22.6396 71.9869 22.5059 72.5162 22.5059C73.0706 22.5059 73.5526 22.6368 73.9594 22.9015C74.3661 23.1661 74.6809 23.5339 74.901 24.0047C75.1211 24.4755 75.2326 25.0216 75.2326 25.6401V25.9048H70.7611C70.7833 26.4898 70.9505 26.9662 71.2653 27.3312C71.5773 27.6961 72.0175 27.88 72.5831 27.88C73.0093 27.88 73.3576 27.7825 73.6278 27.5847C73.8981 27.3897 74.0764 27.1362 74.1683 26.8269H75.1295C75.0542 27.2086 74.8982 27.5429 74.6586 27.8326C74.419 28.1224 74.1237 28.3481 73.7671 28.5096C73.4105 28.6712 73.0149 28.752 72.5803 28.752H72.5831ZM70.7722 25.0801H74.2686C74.2157 24.5563 74.0318 24.1384 73.7198 23.8292C73.4077 23.52 73.0038 23.3639 72.5134 23.3639C72.0231 23.3639 71.6219 23.52 71.3127 23.8292C71.0034 24.1384 70.8223 24.5563 70.7694 25.0801H70.7722Z" fill="#EDF0E7"/>
<path d="M78.7955 28.752C78.2104 28.752 77.7117 28.6183 77.2994 28.3508C76.8871 28.0834 76.5695 27.7129 76.3522 27.2448C76.1349 26.7768 76.0234 26.2391 76.0234 25.6401C76.0234 25.0411 76.1377 24.4923 76.3689 24.0214C76.6001 23.5506 76.9177 23.1801 77.3245 22.9098C77.7312 22.6396 78.1993 22.5059 78.7286 22.5059C79.283 22.5059 79.765 22.6368 80.1718 22.9015C80.5785 23.1661 80.8933 23.5339 81.1134 24.0047C81.3335 24.4755 81.4449 25.0216 81.4449 25.6401V25.9048H76.9735C76.9957 26.4898 77.1629 26.9662 77.4777 27.3312C77.7897 27.6961 78.2299 27.88 78.7955 27.88C79.2217 27.88 79.57 27.7825 79.8402 27.5847C80.1105 27.3897 80.2888 27.1362 80.3807 26.8269H81.3419C81.2666 27.2086 81.1106 27.5429 80.871 27.8326C80.6314 28.1224 80.3361 28.3481 79.9795 28.5096C79.6229 28.6712 79.2273 28.752 78.7927 28.752H78.7955ZM76.9846 25.0801H80.481C80.4281 24.5563 80.2442 24.1384 79.9322 23.8292C79.6201 23.52 79.2162 23.3639 78.7258 23.3639C78.2355 23.3639 77.8343 23.52 77.5251 23.8292C77.2158 24.1384 77.0347 24.5563 76.9818 25.0801H76.9846Z" fill="#EDF0E7"/>
<path d="M85.1533 22.6417V23.4691H83.9414V27.1689C83.9414 27.4001 83.9888 27.5589 84.0863 27.6536C84.181 27.7456 84.3537 27.7929 84.5989 27.7929H85.1533V28.6204H84.507C83.4873 28.6204 82.9803 28.1718 82.9803 27.2747V23.4719H81.916V22.6444H82.9803V21.0146H83.9414V22.6444H85.1533V22.6417Z" fill="#EDF0E7"/>
<path d="M88.1177 28.752C87.6915 28.752 87.3042 28.6824 86.9588 28.5431C86.6133 28.4038 86.3319 28.192 86.1146 27.9051C85.9001 27.6209 85.7775 27.2615 85.7524 26.8269H86.7025C86.7693 27.5596 87.2346 27.9246 88.0954 27.9246C88.5106 27.9246 88.8365 27.8382 89.0761 27.6655C89.3157 27.4928 89.4355 27.2727 89.4355 27.008C89.4355 26.7823 89.3519 26.6012 89.1876 26.4647C89.0232 26.3282 88.8059 26.2307 88.5356 26.1694L87.5745 25.9438C86.4489 25.6791 85.889 25.1135 85.889 24.2471C85.889 23.9072 85.9809 23.6063 86.162 23.3444C86.3459 23.0826 86.5994 22.8764 86.9253 22.7287C87.2513 22.5811 87.6274 22.5059 88.0537 22.5059C88.4799 22.5059 88.8421 22.5839 89.1708 22.7399C89.5024 22.8959 89.7643 23.1188 89.9565 23.4057C90.1515 23.6927 90.2546 24.0326 90.2657 24.431H89.3269C89.3241 24.1134 89.2071 23.8515 88.9758 23.6453C88.7446 23.4392 88.4381 23.3333 88.0537 23.3333C87.6692 23.3333 87.3962 23.4224 87.1761 23.598C86.956 23.7763 86.8473 23.9936 86.8473 24.2499C86.8473 24.4755 86.9309 24.6594 87.0953 24.7959C87.2624 24.9324 87.4881 25.0355 87.7751 25.1052L88.7362 25.3308C89.3101 25.4674 89.7308 25.6707 89.9983 25.9382C90.2657 26.2084 90.3995 26.5567 90.3995 26.9885C90.3995 27.359 90.2992 27.6738 90.0986 27.9385C89.898 28.2032 89.625 28.4038 89.2795 28.5431C88.934 28.6824 88.544 28.752 88.1122 28.752H88.1177Z" fill="#EDF0E7"/>
<path d="M97.041 22.6417V23.4691H95.8291V27.1689C95.8291 27.4001 95.8765 27.5589 95.974 27.6536C96.0715 27.7456 96.2414 27.7929 96.4866 27.7929H97.041V28.6204H96.3947C95.375 28.6204 94.8679 28.1718 94.8679 27.2747V23.4719H93.8037V22.6444H94.8679V21.0146H95.8291V22.6444H97.041V22.6417Z" fill="#EDF0E7"/>
<path d="M100.393 28.752C99.8076 28.752 99.3089 28.6183 98.8966 28.3508C98.4843 28.0834 98.1667 27.7129 97.9493 27.2448C97.732 26.7768 97.6206 26.2391 97.6206 25.6401C97.6206 25.0411 97.7348 24.4923 97.9661 24.0214C98.1973 23.5506 98.5149 23.1801 98.9217 22.9098C99.3284 22.6396 99.7965 22.5059 100.326 22.5059C100.88 22.5059 101.362 22.6368 101.769 22.9015C102.176 23.1661 102.491 23.5339 102.711 24.0047C102.931 24.4755 103.042 25.0216 103.042 25.6401V25.9048H98.5706C98.5929 26.4898 98.7601 26.9662 99.0749 27.3312C99.3869 27.6961 99.8271 27.88 100.393 27.88C100.819 27.88 101.167 27.7825 101.437 27.5847C101.708 27.3897 101.886 27.1362 101.978 26.8269H102.939C102.864 27.2086 102.708 27.5429 102.468 27.8326C102.229 28.1224 101.933 28.3481 101.577 28.5096C101.22 28.6712 100.824 28.752 100.39 28.752H100.393ZM98.5818 25.0801H102.078C102.025 24.5563 101.841 24.1384 101.529 23.8292C101.217 23.52 100.813 23.3639 100.323 23.3639C99.8327 23.3639 99.4315 23.52 99.1223 23.8292C98.813 24.1384 98.6319 24.5563 98.579 25.0801H98.5818Z" fill="#EDF0E7"/>
<path d="M106.606 28.752C106.054 28.752 105.572 28.6183 105.154 28.3536C104.736 28.089 104.413 27.7212 104.182 27.2532C103.951 26.7851 103.833 26.2474 103.833 25.6401C103.833 25.0327 103.951 24.4867 104.182 24.0159C104.413 23.545 104.739 23.1745 105.154 22.907C105.572 22.6396 106.054 22.5059 106.606 22.5059C107.057 22.5059 107.464 22.595 107.823 22.7733C108.182 22.9516 108.475 23.1996 108.703 23.5116C108.932 23.8236 109.071 24.183 109.124 24.587H108.152C108.079 24.236 107.915 23.9462 107.656 23.7178C107.397 23.4893 107.049 23.3751 106.606 23.3751C106.043 23.3751 105.603 23.5812 105.285 23.9908C104.965 24.4031 104.806 24.9519 104.806 25.6373C104.806 26.3226 104.965 26.8603 105.282 27.2671C105.6 27.6738 106.04 27.8772 106.606 27.8772C107.054 27.8772 107.397 27.7658 107.636 27.5457C107.876 27.3256 108.04 27.0303 108.135 26.6653H109.124C109.071 27.0581 108.932 27.412 108.703 27.7268C108.475 28.0416 108.18 28.2895 107.82 28.4734C107.461 28.6573 107.054 28.7492 106.606 28.7492V28.752Z" fill="#EDF0E7"/>
<path d="M111.16 25.1184V28.6148H110.199V20.1816H111.16V23.4747C111.367 23.1515 111.62 22.9119 111.915 22.7559C112.211 22.5999 112.545 22.5246 112.913 22.5246C113.317 22.5246 113.684 22.611 114.016 22.7865C114.348 22.962 114.612 23.2239 114.81 23.575C115.008 23.926 115.108 24.3662 115.108 24.8983V28.6092H114.147V24.9652C114.147 24.447 114.024 24.0597 113.776 23.7978C113.528 23.536 113.18 23.405 112.732 23.405C112.283 23.405 111.927 23.5387 111.62 23.8062C111.314 24.0737 111.158 24.5111 111.158 25.1128L111.16 25.1184Z" fill="#EDF0E7"/>
<path d="M117.498 25.1183V28.6147H116.537V22.6388H117.476V23.5164C117.682 23.1765 117.938 22.9257 118.237 22.7669C118.537 22.6054 118.875 22.5273 119.253 22.5273C119.657 22.5273 120.025 22.6137 120.357 22.7892C120.688 22.9647 120.953 23.2266 121.151 23.5777C121.348 23.9287 121.449 24.3689 121.449 24.901V28.6119H120.488V24.9679C120.488 24.4497 120.365 24.0624 120.117 23.8005C119.869 23.5387 119.521 23.4077 119.072 23.4077C118.624 23.4077 118.267 23.5414 117.961 23.8089C117.654 24.0763 117.498 24.5137 117.498 25.1155V25.1183Z" fill="#EDF0E7"/>
<path d="M125.341 28.752C124.789 28.752 124.307 28.6183 123.889 28.3536C123.472 28.089 123.148 27.7212 122.917 27.2532C122.686 26.7851 122.569 26.2474 122.569 25.6401C122.569 25.0327 122.686 24.4867 122.917 24.0159C123.148 23.545 123.474 23.1745 123.889 22.907C124.307 22.6396 124.789 22.5059 125.341 22.5059C125.893 22.5059 126.38 22.6396 126.795 22.907C127.21 23.1745 127.533 23.545 127.765 24.0159C127.996 24.4867 128.113 25.03 128.113 25.6401C128.113 26.2502 127.996 26.7851 127.765 27.2532C127.533 27.7212 127.21 28.089 126.795 28.3536C126.38 28.6183 125.895 28.752 125.341 28.752ZM125.341 27.8828C125.906 27.8828 126.349 27.6794 126.664 27.2699C126.982 26.8603 127.141 26.3171 127.141 25.6429C127.141 24.9687 126.982 24.4115 126.661 23.9991C126.341 23.5868 125.904 23.3807 125.341 23.3807C124.778 23.3807 124.338 23.5868 124.02 23.9964C123.703 24.4087 123.541 24.9575 123.541 25.6429C123.541 26.3282 123.7 26.8659 124.018 27.2727C124.335 27.6794 124.775 27.8828 125.341 27.8828Z" fill="#EDF0E7"/>
<path d="M130.197 20.1846V28.6177H129.236V20.1846H130.197Z" fill="#EDF0E7"/>
<path d="M134.092 28.752C133.54 28.752 133.058 28.6183 132.64 28.3536C132.222 28.089 131.899 27.7212 131.668 27.2532C131.437 26.7851 131.32 26.2474 131.32 25.6401C131.32 25.0327 131.437 24.4867 131.668 24.0159C131.899 23.545 132.225 23.1745 132.64 22.907C133.058 22.6396 133.54 22.5059 134.092 22.5059C134.643 22.5059 135.131 22.6396 135.546 22.907C135.961 23.1745 136.284 23.545 136.516 24.0159C136.747 24.4867 136.864 25.03 136.864 25.6401C136.864 26.2502 136.747 26.7851 136.516 27.2532C136.284 27.7212 135.961 28.089 135.546 28.3536C135.131 28.6183 134.646 28.752 134.092 28.752ZM134.092 27.8828C134.657 27.8828 135.1 27.6794 135.415 27.2699C135.733 26.8603 135.892 26.3171 135.892 25.6429C135.892 24.9687 135.733 24.4115 135.412 23.9991C135.092 23.5868 134.655 23.3807 134.092 23.3807C133.529 23.3807 133.089 23.5868 132.771 23.9964C132.451 24.4087 132.292 24.9575 132.292 25.6429C132.292 26.3282 132.451 26.8659 132.769 27.2727C133.086 27.6794 133.526 27.8828 134.092 27.8828Z" fill="#EDF0E7"/>
<path d="M140.486 31.0616C139.814 31.0616 139.246 30.9056 138.784 30.5964C138.318 30.2871 138.051 29.8386 137.976 29.2507H138.959C139.046 29.5711 139.227 29.8107 139.5 29.9723C139.773 30.1339 140.101 30.2119 140.486 30.2119C141.007 30.2119 141.416 30.0726 141.714 29.7968C142.013 29.521 142.16 29.1254 142.16 28.6155V27.7101H142.155C141.935 28.0583 141.664 28.3147 141.341 28.479C141.018 28.6462 140.661 28.727 140.269 28.727C139.75 28.727 139.299 28.596 138.906 28.3342C138.516 28.0723 138.212 27.7073 137.998 27.2421C137.783 26.7768 137.675 26.2363 137.675 25.6262C137.675 25.0161 137.783 24.47 137.998 24.0047C138.212 23.5395 138.516 23.1745 138.906 22.9154C139.296 22.6563 139.75 22.5254 140.269 22.5254C140.656 22.5254 141.018 22.6062 141.352 22.7706C141.687 22.9349 141.957 23.2024 142.166 23.5701H142.171V22.6368H143.11V28.6128C143.11 29.2006 142.988 29.6742 142.745 30.0336C142.503 30.393 142.18 30.6521 141.781 30.8137C141.38 30.9753 140.948 31.0561 140.486 31.0561V31.0616ZM140.419 27.8633C140.973 27.8633 141.414 27.6599 141.74 27.2532C142.066 26.8464 142.23 26.3032 142.23 25.629C142.23 24.9548 142.066 24.4115 141.74 24.002C141.414 23.5924 140.973 23.389 140.419 23.389C139.901 23.389 139.477 23.5785 139.149 23.9602C138.82 24.3418 138.653 24.899 138.653 25.629C138.653 26.3589 138.817 26.9161 139.149 27.295C139.48 27.6739 139.904 27.8633 140.419 27.8633Z" fill="#EDF0E7"/>
<path d="M144.584 30.9827V30.133H145.172C145.525 30.133 145.796 29.8934 145.98 29.4142L146.308 28.5644L143.993 22.6387H145.035L146.325 26.0794C146.409 26.3022 146.489 26.5251 146.57 26.7508C146.651 26.9764 146.729 27.1993 146.804 27.4222C146.882 27.1993 146.963 26.9764 147.044 26.7508C147.125 26.5251 147.208 26.3022 147.289 26.0794L148.557 22.6387H149.582L146.827 29.7234C146.671 30.1246 146.45 30.4338 146.163 30.6511C145.876 30.8712 145.545 30.9799 145.169 30.9799H144.581L144.584 30.9827Z" fill="#EDF0E7"/>
<path d="M150.292 28.7122C150.097 28.7122 149.93 28.6425 149.791 28.506C149.651 28.3695 149.584 28.2023 149.584 28.0045C149.584 27.8067 149.654 27.6368 149.791 27.5003C149.927 27.3637 150.094 27.2969 150.292 27.2969C150.49 27.2969 150.66 27.3637 150.796 27.5003C150.933 27.6368 151 27.8039 151 28.0045C151 28.2051 150.933 28.3667 150.796 28.506C150.66 28.6453 150.493 28.7122 150.292 28.7122Z" fill="#EDF0E7"/>
<path d="M64.1528 39.0487C63.5538 39.0487 62.991 38.9373 62.4673 38.7116C61.9435 38.4859 61.481 38.1739 61.0798 37.7755C60.6787 37.3743 60.3666 36.9146 60.1437 36.3881C59.9181 35.8643 59.8066 35.3016 59.8066 34.7026C59.8066 34.1036 59.9181 33.5408 60.1437 33.0171C60.3694 32.4933 60.6814 32.0308 61.0798 31.6296C61.4782 31.2285 61.9407 30.9164 62.4673 30.6935C62.991 30.4679 63.5538 30.3564 64.1528 30.3564C64.7518 30.3564 65.3145 30.4679 65.8383 30.6935C66.362 30.9192 66.8245 31.2312 67.2257 31.6296C67.6269 32.0308 67.9389 32.4905 68.1618 33.0171C68.3875 33.5408 68.4989 34.1036 68.4989 34.7026C68.4989 35.3016 68.3875 35.8643 68.1618 36.3881C67.9361 36.9118 67.6241 37.3743 67.2257 37.7755C66.8273 38.1767 66.3648 38.4887 65.8383 38.7116C65.3145 38.9373 64.7518 39.0487 64.1528 39.0487ZM64.1528 38.0987C64.6208 38.0987 65.061 38.0123 65.4705 37.8368C65.8829 37.6613 66.2422 37.4189 66.5543 37.1069C66.8663 36.7948 67.1087 36.4354 67.2842 36.0231C67.4597 35.6108 67.5461 35.1734 67.5461 34.7054C67.5461 34.2373 67.4597 33.7971 67.2842 33.3876C67.1087 32.9753 66.8663 32.6159 66.5543 32.3038C66.2422 31.9918 65.8829 31.7494 65.4705 31.5739C65.0582 31.3984 64.6208 31.312 64.1528 31.312C63.6847 31.312 63.2445 31.3984 62.835 31.5739C62.4227 31.7494 62.0633 31.9918 61.7513 32.3038C61.4392 32.6159 61.1968 32.9753 61.0213 33.3876C60.8458 33.7999 60.7594 34.2373 60.7594 34.7054C60.7594 35.1734 60.8458 35.6136 61.0213 36.0231C61.1968 36.4354 61.4392 36.7948 61.7513 37.1069C62.0633 37.4189 62.4227 37.6613 62.835 37.8368C63.2473 38.0123 63.6847 38.0987 64.1528 38.0987ZM61.754 34.7081C61.754 34.2568 61.8627 33.8445 62.0828 33.474C62.3029 33.1034 62.5982 32.8109 62.9687 32.5908C63.3393 32.3707 63.7516 32.2621 64.2001 32.2621C64.593 32.2621 64.9523 32.3456 65.2839 32.5128C65.6126 32.68 65.8884 32.9084 66.1057 33.1954C66.323 33.4823 66.4568 33.8083 66.5097 34.1732H65.5151C65.4594 33.8946 65.3062 33.6634 65.0526 33.4823C64.8019 33.3012 64.5177 33.2121 64.2001 33.2121C63.9299 33.2121 63.6791 33.2789 63.4535 33.4127C63.2278 33.5464 63.0467 33.7275 62.9102 33.9531C62.7737 34.1788 62.7068 34.4295 62.7068 34.7054C62.7068 34.9812 62.7737 35.2263 62.9102 35.4492C63.0467 35.6749 63.2278 35.8532 63.4535 35.9869C63.6791 36.1206 63.9299 36.1875 64.2001 36.1875C64.5177 36.1875 64.7852 36.0983 65.0053 35.92C65.2254 35.7417 65.3647 35.5105 65.4204 35.2263H66.415C66.3648 35.5913 66.2395 35.92 66.0361 36.2098C65.8327 36.4995 65.5736 36.7308 65.2588 36.8979C64.944 37.0651 64.5902 37.1487 64.1973 37.1487C63.7488 37.1487 63.3393 37.0372 62.9659 36.8171C62.5954 36.597 62.3001 36.3017 62.08 35.9312C61.8599 35.5607 61.7513 35.1511 61.7513 34.7026L61.754 34.7081Z" fill="#EDF0E7"/>
<path d="M69.7499 38.9175V38.0622L72.7504 35.3236C73.1097 34.9948 73.3995 34.7079 73.6251 34.4571C73.8508 34.2092 74.0152 33.964 74.1211 33.7272C74.2269 33.4904 74.2799 33.2285 74.2799 32.9415C74.2799 32.4206 74.1266 32.011 73.8174 31.7074C73.5109 31.4065 73.0875 31.256 72.5526 31.256C71.9759 31.256 71.5273 31.4315 71.2125 31.7854C70.8949 32.1392 70.7361 32.6156 70.7361 33.2146H69.7861C69.7861 32.6518 69.9003 32.1559 70.1287 31.7269C70.3572 31.2978 70.6776 30.9607 71.0927 30.7156C71.5078 30.4732 71.9926 30.3506 72.547 30.3506C73.1014 30.3506 73.5416 30.4592 73.9455 30.6765C74.3495 30.8939 74.6671 31.1947 74.8956 31.5764C75.1268 31.9581 75.241 32.4011 75.241 32.9025C75.241 33.4458 75.0906 33.9445 74.7897 34.4014C74.4888 34.8583 74.0319 35.3681 73.4106 35.9281L71.1289 37.9981V38.0092H75.2884V38.9147H69.7471L69.7499 38.9175Z" fill="#EDF0E7"/>
<path d="M79.3254 39.054C78.7041 39.054 78.1636 38.8757 77.7095 38.5191C77.2554 38.1625 76.9043 37.661 76.6536 37.0119C76.4056 36.3627 76.2803 35.5966 76.2803 34.7079C76.2803 33.8191 76.4056 33.0474 76.6536 32.3955C76.9016 31.7436 77.2554 31.2421 77.7095 30.8855C78.1636 30.5289 78.7041 30.3506 79.3254 30.3506C79.9466 30.3506 80.4871 30.5289 80.944 30.8855C81.4009 31.2421 81.7519 31.7464 81.9999 32.3955C82.2478 33.0474 82.3704 33.8163 82.3704 34.7079C82.3704 35.5994 82.2478 36.3627 81.9999 37.0119C81.7519 37.661 81.4009 38.1625 80.944 38.5191C80.4871 38.8757 79.9494 39.054 79.3254 39.054ZM79.3254 38.1485C79.9717 38.1485 80.4787 37.8421 80.8493 37.2292C81.2198 36.6162 81.4065 35.7749 81.4065 34.7079C81.4065 33.6408 81.2198 32.7883 80.8493 32.1754C80.4787 31.5625 79.9689 31.256 79.3254 31.256C78.6818 31.256 78.172 31.5625 77.8014 32.1754C77.4309 32.7883 77.2442 33.6325 77.2442 34.7079C77.2442 35.7832 77.4309 36.6162 77.8014 37.2292C78.172 37.8421 78.6818 38.1485 79.3254 38.1485Z" fill="#EDF0E7"/>
<path d="M83.3594 38.9175V38.0622L86.3599 35.3236C86.7193 34.9948 87.009 34.7079 87.2347 34.4571C87.4575 34.2092 87.6247 33.964 87.7306 33.7272C87.8364 33.4904 87.8894 33.2285 87.8894 32.9415C87.8894 32.4206 87.7361 32.011 87.4269 31.7074C87.1204 31.4065 86.697 31.256 86.1621 31.256C85.5854 31.256 85.1368 31.4315 84.822 31.7854C84.5044 32.1392 84.3456 32.6156 84.3456 33.2146H83.3956C83.3956 32.6518 83.5098 32.1559 83.7383 31.7269C83.9667 31.2978 84.2871 30.9607 84.7022 30.7156C85.1173 30.4732 85.6021 30.3506 86.1565 30.3506C86.7109 30.3506 87.1511 30.4592 87.5551 30.6765C87.959 30.8939 88.2766 31.1947 88.5051 31.5764C88.7363 31.9581 88.8505 32.4011 88.8505 32.9025C88.8505 33.4458 88.7001 33.9445 88.402 34.4014C88.1011 34.8583 87.6414 35.3681 87.0229 35.9281L84.7412 37.9981V38.0092H88.9007V38.9147H83.3594V38.9175Z" fill="#EDF0E7"/>
<path d="M89.4941 36.881V36.0424L93.5282 30.4844H94.7736V35.9728H96.0635V36.8782H94.7736V38.9147H93.8013V36.8782H89.4941V36.881ZM93.8013 35.9755V31.6294H93.7901L90.6503 35.9644V35.9755H93.8013Z" fill="#EDF0E7"/>
<path d="M64.0884 9.65095C63.3111 9.65095 62.6313 9.46429 62.0462 9.09375C61.4612 8.72322 61.0071 8.20781 60.6783 7.55589C60.3524 6.90119 60.188 6.15176 60.188 5.30761C60.188 4.46346 60.3496 3.7001 60.6755 3.04818C60.9987 2.39348 61.4556 1.88086 62.0435 1.51032C62.6313 1.13979 63.3111 0.953125 64.0884 0.953125C64.6762 0.953125 65.2139 1.07014 65.7014 1.30137C66.189 1.53261 66.5957 1.86414 66.9217 2.29039C67.2477 2.71943 67.4622 3.22648 67.5653 3.81432H66.5233C66.3868 3.19862 66.1026 2.72779 65.6652 2.39626C65.2306 2.06752 64.7041 1.90036 64.0884 1.90036C63.4727 1.90036 62.9851 2.04523 62.5561 2.33218C62.127 2.61914 61.7927 3.02032 61.5615 3.53294C61.3275 4.04556 61.2104 4.63619 61.2104 5.30761C61.2104 5.97903 61.3275 6.56408 61.5615 7.07392C61.7955 7.58375 62.127 7.98215 62.5561 8.27189C62.9851 8.56163 63.4977 8.70371 64.0884 8.70371C64.679 8.70371 65.2195 8.53934 65.6569 8.2106C66.0943 7.88185 66.384 7.41381 66.5289 6.80089H67.5653C67.4622 7.38595 67.2504 7.89021 66.9245 8.31646C66.6013 8.74272 66.1946 9.07146 65.7042 9.3027C65.2167 9.53394 64.6762 9.65095 64.0884 9.65095Z" fill="#EDF0E7"/>
<path d="M70.304 8.06059V5.78444H68.0474V4.90129H70.304V2.62793H71.2206V4.90407H73.4772V5.78723H71.2206V8.06337H70.304V8.06059Z" fill="#EDF0E7"/>
</svg>
