<svg width="316" height="79" viewBox="0 0 316 79" fill="none" xmlns="http://www.w3.org/2000/svg">
<path d="M153.99 11.917C146.174 11.917 138.572 11.9135 130.814 10.9675C113.549 8.86191 96.0855 9.38491 78.7308 9.38491C67.2991 9.38491 55.2484 8.2832 43.8796 9.42008C40.1067 9.79737 36.0962 11.1502 32.4853 12.2335C28.0216 13.5726 23.378 14.9816 19.1567 16.9811C14.7582 19.0647 12.0987 24.7671 9.97797 29.0085C7.63468 33.6951 5.56607 37.7605 3.82362 42.7942C2.90336 45.4528 1.30922 51.0411 3.64778 53.3797C8.06249 57.7944 10.3109 66.0789 17.2577 67.6226C20.2366 68.2846 22.7847 70.2991 25.8386 70.7877C31.64 71.716 37.3786 73.1527 43.2115 74.0935C54.9487 75.9866 67.1215 76.4849 79.0122 76.4849C93.6296 76.4849 108.223 76.8168 122.69 74.4452C136 72.2633 149.74 71.4207 163.239 71.4207C171.798 71.4207 180.131 69.5217 188.665 69.5217C193.771 69.5217 200.322 69.3121 205.264 67.9391C211.213 66.2866 217.618 65.2993 223.622 63.9652C228.268 62.9327 232.788 62.5585 237.548 62.5585C249.408 62.5585 261.255 61.2924 272.997 61.2924C282.654 61.2924 293.111 61.8323 302.397 59.2527C310.488 57.0054 314.527 46.3342 312.737 38.5037C311.137 31.5043 306.506 30.7798 301.483 27.2501C298.505 25.1573 294.702 23.8524 291.39 22.3618C288.058 20.8623 284.344 18.6169 280.664 18.2823C275.307 17.7953 269.076 15.5307 263.818 14.1677C254.919 11.8605 245.573 11.6926 236.599 9.66622C225.388 7.13482 213.569 6.62625 202.134 5.58677C193.985 4.84596 185.874 3.69325 177.728 3.08986C162.673 1.9747 146.821 3.91515 132.854 9.66622C129.091 11.2158 125.163 12.1387 121.389 13.816C119.56 14.6289 112.89 16.888 112.21 18.2471" stroke="#EACA2A" stroke-width="4" stroke-linecap="round"/>
</svg>
