<svg width="52" height="19" viewBox="0 0 52 19" fill="none" xmlns="http://www.w3.org/2000/svg">
<path d="M6.18691 3.36602C4.88355 3.36602 2.88298 2.96116 2.13897 4.33895C1.63779 5.26707 1.62568 6.29164 1.60342 7.31577C1.57175 8.77224 1.3747 10.291 1.62573 11.7386C2.0934 14.4355 4.28 16.009 6.98133 15.8089C8.14568 15.7226 9.41047 14.6421 9.64127 13.4881" stroke="#5EA0C6" stroke-width="2.1" stroke-linecap="round"/>
<path d="M12.7742 4.65094C12.988 4.67766 12.8545 7.06301 12.8545 7.31088C12.8545 8.88616 12.6894 10.5563 12.8724 12.122C12.9985 13.2007 13.539 14.0062 14.6576 14.166C15.9884 14.3562 17.1229 13.227 17.8352 12.2023C18.2211 11.6474 18.6062 11.092 18.8617 10.4618C19.2632 9.47154 19.3257 8.46818 19.4018 7.418C19.4697 6.48104 19.5037 5.49974 19.067 4.63755C18.6825 3.87835 17.8709 3.36078 17.0944 3.06211C15.9725 2.63062 14.7698 2.43557 13.582 2.31679C13.4496 2.30355 13.271 2.18969 13.1357 2.24984C12.7809 2.40754 12.6291 3.61295 12.5332 3.92793" stroke="#5EA0C6" stroke-width="2.1" stroke-linecap="round"/>
<path d="M20.8882 2C20.8882 2.87573 21.341 3.90859 21.5576 4.74028C22.115 6.88049 22.6846 9.00769 23.2 11.1581C23.3122 11.6261 23.4064 12.1111 23.4544 12.5907C23.4626 12.6723 23.4675 12.9426 23.3785 12.7648" stroke="#5EA0C6" stroke-width="2.1" stroke-linecap="round"/>
<path d="M23.1373 9.71167C23.0317 9.69846 23.96 9.09445 24.1013 9.01544C25.2652 8.36444 26.5866 7.89123 27.9171 7.74795C28.622 7.67203 29.621 7.55627 30.2067 8.0425C30.8053 8.53947 31.2592 9.32396 31.4117 10.0866C31.5472 10.764 31.6749 11.5321 31.5545 12.2243C31.3427 13.442 30.1523 14.4452 29.0463 14.8441C27.8713 15.2679 26.5806 15.4732 25.3331 15.2993C24.1648 15.1365 23.3569 14.3644 22.6553 13.4874" stroke="#5EA0C6" stroke-width="2.1" stroke-linecap="round"/>
<path d="M39.2844 6.33824C38.4345 6.33824 37.534 6.24276 36.6959 6.37394C35.1086 6.62237 33.737 8.35249 33.3397 9.8283C33.0148 11.0349 32.7568 13.0957 33.5003 14.211C33.9919 14.9482 35.371 15.3192 36.1603 14.8893C36.9364 14.4666 37.4064 13.6796 37.7982 12.9212C38.3968 11.7625 38.8511 10.4603 39.0434 9.16778C39.1314 8.57642 39.1237 7.98292 39.1237 7.38704C39.1237 7.32401 39.0764 6.96403 39.1416 6.91843C39.3135 6.79807 42.3142 11.1903 42.5959 11.5778C43.9299 13.412 45.6158 15.2905 47.6391 16.38" stroke="#5EA0C6" stroke-width="2.1" stroke-linecap="round"/>
<path d="M50.6921 12.7646C50.6921 13.626 50.0725 14.6559 49.6656 15.38C49.2963 16.0369 48.6841 17.1026 47.8804 17.2634" stroke="#5EA0C6" stroke-width="2.1" stroke-linecap="round"/>
</svg>
