<svg width="211" height="21" viewBox="0 0 211 21" fill="none" xmlns="http://www.w3.org/2000/svg">
<path d="M3.67676 8.47796C12.321 8.18766 20.9337 7.71291 29.582 7.71291C36.0127 7.71291 42.3675 6.31818 48.7293 6.18283C51.8345 6.11676 54.8807 5.8003 57.9948 5.8003C61.5515 5.8003 60.9431 13.3258 62.2876 15.7459C63.8198 18.5039 68.8267 16.8123 70.8306 16.2134C78.0374 14.0596 85.6823 13.0918 92.8043 10.6881C98.1083 8.89797 103.85 8.15272 109.338 7.03287C113.025 6.28028 116.69 6.18283 120.431 6.18283C121.496 6.18283 124.875 5.81832 124.936 7.4154C125.002 9.13483 124.166 12.3292 125.786 13.4507C129.082 15.7323 135.824 14.8903 139.557 14.5133C144.083 14.0561 148.688 12.0197 153.051 10.7731C157.511 9.49892 162.064 8.60452 166.546 7.4154C170.809 6.28442 175.249 6.18283 179.637 6.18283C181.126 6.18283 182.34 5.88095 183.377 7.03287C184.969 8.80195 184.36 11.1982 187.16 11.9207C190.661 12.8243 195.171 12.5763 198.593 11.4956C202.922 10.1286 205.343 7.65742 207.561 3.8877" stroke="#FF3755" stroke-width="6" stroke-linecap="round"/>
</svg>
