<svg width="40" height="40" viewBox="0 0 40 40" fill="none" xmlns="http://www.w3.org/2000/svg">
<path d="M2.21032 30.6877L2.34576 36.2131C2.35322 36.5172 2.2258 37.1018 2.54078 37.3008C2.91473 37.537 3.1751 37.5711 3.65132 37.5594L8.17102 37.4486C9.6464 37.4124 11.0972 37.1654 12.5721 37.1293C13.4028 37.1089 14.2231 37.1593 15.0547 37.1389C15.3866 37.1308 15.463 36.0529 15.515 35.7885C15.6239 35.2347 15.7489 34.5222 16.0357 34.0294C16.3961 33.4103 15.8338 33.4159 15.3141 33.3423C13.6299 33.1039 11.9664 32.8554 10.8278 31.4632C10.2539 30.7616 9.87407 29.9975 9.3642 29.2594C9.10432 28.8832 8.48198 28.245 7.98396 28.2204C7.0701 28.1752 6.29721 28.1653 5.51032 28.7391C5.13939 29.0096 4.68727 29.1029 4.29101 29.3133C3.80225 29.5728 3.30347 29.9312 2.83388 30.2496M23.4556 33.7533C23.6042 33.7682 23.7857 34.0811 23.8648 34.1877C24.1317 34.5475 24.3769 34.9599 24.6021 35.3498C24.7792 35.6564 25.066 35.8881 25.2549 36.192C25.6196 36.7786 26.4589 36.6104 27.0206 36.6353C29.6374 36.7515 32.2794 37.0543 34.8801 36.9906L37.3614 36.9298C37.5808 36.9244 37.7836 36.1903 37.8564 36.0211C38.0036 35.6789 38.0007 35.2397 37.9128 34.8855C37.6824 33.9567 37.5504 33.0134 37.2432 32.1088C37.0514 31.544 37.2158 30.9383 36.7712 30.515C36.2837 30.0508 35.3057 29.7877 34.6508 29.6704C34.1146 29.5743 33.6213 29.3921 33.1396 29.1365C32.7335 28.921 32.1004 28.6556 31.7715 28.3424C31.6086 28.1874 30.2906 27.1418 30.1829 27.4657C29.926 28.238 29.4929 28.9976 29.1155 29.7179C28.8392 30.2452 28.3679 30.8391 27.8795 31.1927C27.3414 31.5825 26.6945 31.5371 26.0807 31.7426C25.7736 31.8454 25.3757 31.8415 25.0992 32.0272C24.7348 32.2718 24.242 32.4243 23.8452 32.6096C23.3153 32.8571 22.824 33.3085 22.8404 33.9753M9.27161 27.4727C10.3026 26.9252 10.2095 26.6009 10.8748 25.71C11.1363 25.3599 12.3782 24.2651 12.365 23.727C12.3279 22.2159 13.5594 20.8626 13.6496 19.3255C13.7419 17.7539 14.1215 16.0902 14.3634 14.5456C14.5789 13.1697 15.0592 11.8216 15.5029 10.5015C15.9152 9.27503 15.978 7.93261 16.2706 6.66665C16.4667 5.81862 16.7026 4.87588 16.729 4.02417C16.7389 3.7054 16.8922 3.0873 17.194 2.90488C17.3832 2.79052 17.518 2.75845 17.7365 2.7531C18.0631 2.74509 17.8427 2.96334 17.9843 3.13171C18.4844 3.72631 18.6288 4.34892 18.938 5.00098C19.1625 5.47449 19.0274 6.11554 19.254 6.59352C19.5042 7.12127 19.4629 8.21159 19.4769 8.78075C19.5076 10.0357 19.4285 11.355 19.5782 12.602C19.9327 15.5548 19.8563 18.6121 19.9296 21.6027C19.9617 22.9084 20.2052 24.3688 19.9982 25.6556C19.9075 26.2199 19.6433 26.8687 19.6569 27.4258C19.666 27.7943 19.4172 28.0959 19.4056 28.4706C19.3905 28.957 19.0275 30.1463 18.7329 30.5336C18.4739 30.8743 18.1262 31.3671 17.9629 31.7604C17.7001 32.393 17.2865 32.4843 16.7427 32.829M19.44 7.28116C19.407 5.93493 19.2517 4.59046 19.5885 3.29219C19.5885 3.29219 20.0715 1.68175 20.2809 2.35198C20.4753 2.97427 21.0216 3.39838 21.298 3.98119C22.5933 6.71325 23.0264 9.63872 23.7552 12.5764C24.5258 15.6823 25.2805 18.818 26.0372 21.8682C26.2947 22.9064 26.7722 23.8622 27.1405 24.8187C27.524 25.8148 28.3095 26.624 28.8 27.5477M22.4376 33.5203C21.0721 33.5538 20.9214 32.0198 20.2738 31.2498C20.0414 30.9735 19.8656 30.2891 19.8564 29.9137C19.8522 29.7413 19.7031 29.5299 19.5977 29.4045C19.4782 29.2624 19.5518 28.7878 19.5474 28.6056M3.83045 32.0254C3.88734 31.933 4.12646 31.847 4.22441 31.8043C4.4763 31.6945 4.70317 31.5424 4.95774 31.4389C5.67568 31.1471 6.40299 30.89 7.16143 30.7106C7.37377 30.6604 7.69073 30.6273 7.90274 30.7006C8.06317 30.756 8.18234 30.7429 8.11728 30.9312C7.95764 31.3932 7.64786 31.7811 7.32169 32.139C6.89785 32.6041 6.46459 33.0605 6.04325 33.5279C5.61895 33.9985 5.23203 34.5051 4.79362 34.9617C4.68326 35.0767 4.58885 35.1903 4.49245 35.313C4.47213 35.3389 4.36429 35.4539 4.45812 35.4529C4.82915 35.4491 5.28671 35.2241 5.6377 35.1273C7.31606 34.6643 8.90947 33.9319 10.5902 33.4785C10.7272 33.4415 10.981 33.4525 11.0958 33.38C11.2228 33.2998 10.9967 33.9103 10.9828 33.9504C10.9058 34.1734 10.5365 34.9529 10.7834 35.1424C11.1485 35.4225 11.8064 35.0593 12.1822 34.9392C12.7079 34.7712 13.134 34.6937 13.6486 34.8715M26.0463 33.9014C26.2891 33.6747 26.6055 33.5069 26.8667 33.2976C27.1947 33.0347 27.5236 32.7734 27.8867 32.562C28.5646 32.1674 29.2402 31.7881 29.9028 31.3696C30.1482 31.2146 30.3607 31.0419 30.615 30.8965C30.7669 30.8097 30.9945 30.7287 31.1241 30.6124C31.4252 30.3424 31.0937 31.0822 31.0624 31.1561C30.9452 31.4324 30.7499 31.654 30.5741 31.8934C30.3484 32.2009 30.1427 32.5081 29.8783 32.7854C29.5418 33.1384 29.2001 33.4761 28.857 33.8219C28.6046 34.0764 28.5092 34.3149 28.3958 34.6432C28.3466 34.7856 28.3094 34.8269 28.4688 34.7292C29.0901 34.3483 29.7183 33.9864 30.3267 33.5825C31.3117 32.9287 32.3347 32.3206 33.3002 31.6398C33.6258 31.4103 33.9609 31.1137 34.3199 30.9391C34.4638 30.8691 34.5016 30.8872 34.5098 31.0584C34.5355 31.594 34.3207 32.1367 34.1812 32.6447C34.0125 33.2591 33.8283 33.8615 33.6263 34.4631M33.6263 34.4631C33.5937 34.56 33.5607 34.6568 33.5272 34.7537C33.4457 34.9896 33.703 34.8314 33.8328 34.7682C34.0175 34.6784 34.2047 34.5905 34.4006 34.5414M33.6263 34.4631C33.6376 34.4632 33.6489 34.4633 33.6602 34.4635C33.9115 34.4671 34.1572 34.4973 34.4006 34.5414M33.6263 34.4631C33.0351 34.4585 32.4937 34.5606 31.9268 34.6958C31.6654 34.7581 31.4743 34.8523 31.2128 34.7619M34.4006 34.5414C34.4868 34.5199 34.5747 34.5058 34.6648 34.5024C34.7722 34.4982 35.2374 34.487 35.2908 34.6369C35.3362 34.7644 35.4378 34.7787 35.2054 34.7218L35.1796 34.7155C34.9195 34.6519 34.6613 34.5887 34.4006 34.5414Z" stroke="#046511" stroke-width="2.94" stroke-linecap="round"/>
</svg>
