<svg width="40" height="39" viewBox="0 0 40 39" fill="none" xmlns="http://www.w3.org/2000/svg">
<path d="M2.37531 30.3446L2.6103 35.8667C2.62323 36.1706 2.50637 36.7573 2.82489 36.9506C3.20304 37.1801 3.46398 37.2095 3.9399 37.1892L8.45687 36.997C9.93136 36.9342 11.3775 36.6611 12.8514 36.5984C13.6817 36.5631 14.5028 36.5987 15.3339 36.5633C15.6655 36.5492 15.7225 35.4701 15.7697 35.2048C15.8686 34.6491 15.9808 33.9345 16.2587 33.4366C16.6079 32.8111 16.0458 32.8269 15.5248 32.7627C13.8366 32.5546 12.1689 32.3361 11.0054 30.9647C10.419 30.2735 10.0254 29.5164 9.50229 28.7876C9.23568 28.4162 8.60193 27.7893 8.10355 27.7737C7.18903 27.7449 6.41608 27.749 5.63967 28.3369C5.27367 28.614 4.82331 28.7154 4.4309 28.9329C3.94689 29.2012 3.45466 29.5685 2.99088 29.8953M23.6724 33.0269C23.8212 33.0391 24.0083 33.3487 24.0893 33.4538C24.3627 33.8088 24.6152 34.2167 24.8474 34.6024C25.0301 34.9058 25.321 35.1323 25.5154 35.4328C25.8905 36.0126 26.7266 35.8294 27.2887 35.8442C29.9073 35.9131 32.5543 36.1683 35.1533 36.0577L37.6332 35.9522C37.8524 35.9429 38.042 35.2052 38.1117 35.0347C38.2527 34.69 38.2419 34.2509 38.1477 33.8984C37.9006 32.9739 37.7516 32.0331 37.4281 31.1342C37.2262 30.5729 37.3796 29.9644 36.9275 29.5491C36.4317 29.0938 35.4491 28.8483 34.7922 28.7428C34.2543 28.6565 33.7578 28.4832 33.2716 28.2363C32.8617 28.0282 32.2239 27.7742 31.8894 27.467C31.7238 27.3149 30.3871 26.2932 30.2853 26.619C30.0424 27.3959 29.623 28.1631 29.2586 28.8901C28.9919 29.4224 28.5313 30.0246 28.0495 30.387C27.5184 30.7863 26.8708 30.7527 26.2609 30.9691C25.9557 31.0775 25.5578 31.0808 25.2846 31.2714C24.9247 31.5225 24.4347 31.6839 24.0413 31.8763C23.516 32.1333 23.0329 32.5935 23.0612 33.2599M9.37752 27.0029C10.3985 26.4369 10.2995 26.1143 10.9487 25.2116C11.2038 24.8568 12.4258 23.7398 12.4029 23.202C12.3386 21.6919 13.5455 20.3166 13.608 18.7781C13.6719 17.2051 14.0215 15.5348 14.2355 13.9861C14.4262 12.6065 14.8822 11.25 15.302 9.92218C15.6921 8.68845 15.7307 7.34511 16.0005 6.07408C16.1812 5.22267 16.4001 4.27582 16.4112 3.42377C16.4153 3.10488 16.5574 2.48412 16.8559 2.29629C17.043 2.17854 17.1772 2.14405 17.3956 2.13475C17.722 2.12086 17.5056 2.34304 17.6502 2.50884C18.1609 3.09433 18.3165 3.71423 18.6374 4.36062C18.8704 4.83001 18.7468 5.47339 18.982 5.9472C19.2417 6.47037 19.2201 7.56125 19.2443 8.13007C19.2977 9.38425 19.2424 10.7048 19.4145 11.9489C19.8221 14.8949 19.8009 17.953 19.9281 20.9418C19.9836 22.2467 20.2534 23.7025 20.0697 24.9928C19.9891 25.5586 19.7366 26.2121 19.7603 26.7689C19.776 27.1371 19.5327 27.4431 19.5278 27.818C19.5215 28.3045 19.1801 29.5002 18.8925 29.8928C18.6396 30.2381 18.3009 30.7371 18.1446 31.1333C17.8933 31.7705 17.4815 31.8692 16.9439 32.2237M19.1804 6.63138C19.1232 5.28596 18.9437 3.94452 19.257 2.64039C19.257 2.64039 19.7109 1.0215 19.9324 1.68785C20.138 2.30654 20.6918 2.72073 20.9786 3.29847C22.3229 6.00674 22.8087 8.92393 23.5903 11.848C24.4167 14.9395 25.2278 18.0611 26.0394 21.0972C26.3156 22.1306 26.8102 23.0776 27.1956 24.0273C27.5971 25.0163 28.397 25.8113 28.904 26.726M22.6503 32.8122C21.2857 32.8703 21.1074 31.3394 20.446 30.5811C20.2087 30.309 20.0205 29.6279 20.0046 29.2527C19.9972 29.0805 19.8444 28.8717 19.7368 28.7483C19.6147 28.6084 19.6798 28.1325 19.672 27.9504M4.01929 31.6529C4.0745 31.5594 4.31203 31.4692 4.4092 31.4247C4.65907 31.3104 4.88316 31.1543 5.13583 31.0462C5.84839 30.7414 6.57094 30.4713 7.32603 30.2783C7.53743 30.2243 7.85374 30.1855 8.06704 30.2549C8.22844 30.3075 8.34736 30.2922 8.2857 30.4816C8.13441 30.9464 7.83168 31.3398 7.512 31.7035C7.09661 32.1762 6.67165 32.6404 6.2588 33.1152C5.84305 33.5934 5.46532 34.107 5.03521 34.5714C4.92694 34.6883 4.83459 34.8036 4.74042 34.928C4.72057 34.9543 4.61482 35.0712 4.70861 35.0685C5.07952 35.058 5.53295 34.8249 5.88214 34.7217C7.55188 34.2285 9.13184 33.4676 10.8041 32.9839C10.9404 32.9445 11.1944 32.9509 11.3079 32.8763C11.4334 32.7939 11.2183 33.4083 11.2052 33.4487C11.1322 33.6731 10.777 34.4591 11.0273 34.6441C11.3974 34.9175 12.0487 34.5425 12.4222 34.4157C12.9448 34.2383 13.3694 34.1531 13.8872 34.3216M26.2653 33.1283C26.504 32.8972 26.8173 32.7238 27.0747 32.5098C27.398 32.241 27.7221 31.9738 28.0813 31.7559C28.7519 31.3491 29.4207 30.9578 30.0756 30.5274C30.3182 30.3679 30.5275 30.1914 30.7792 30.0415C30.9294 29.952 31.1556 29.8669 31.2831 29.7483C31.5792 29.4729 31.2611 30.2186 31.2311 30.2931C31.119 30.5714 30.9276 30.7964 30.7562 31.039C30.5361 31.3505 30.336 31.6613 30.0766 31.9434C29.7465 32.3024 29.411 32.6461 29.0742 32.9981C28.8264 33.2571 28.7353 33.4973 28.6278 33.8276C28.5812 33.9709 28.5448 34.0128 28.7024 33.9122C29.3167 33.5202 29.9382 33.1471 30.5393 32.7323C31.5123 32.0608 32.5242 31.4344 33.4773 30.7363C33.7987 30.501 34.1284 30.1984 34.4842 30.0173C34.6268 29.9448 34.665 29.9622 34.6763 30.1332C34.7115 30.6683 34.5066 31.2147 34.3763 31.7252C34.2187 32.3425 34.0454 32.9481 33.8542 33.5532M33.8542 33.5532C33.8234 33.6507 33.7921 33.7482 33.7604 33.8456C33.6832 34.0829 33.9375 33.9201 34.0661 33.8546C34.2493 33.7615 34.4348 33.6702 34.6298 33.6177M33.8542 33.5532C33.8655 33.5531 33.8768 33.5531 33.8881 33.553C34.1395 33.5522 34.3856 33.5779 34.6298 33.6177M33.8542 33.5532C33.263 33.5594 32.7236 33.6712 32.1592 33.8165C31.8989 33.8836 31.7096 33.9812 31.4465 33.8956M34.6298 33.6177C34.7156 33.5945 34.8032 33.5789 34.8933 33.5738C35.0006 33.5678 35.4655 33.5481 35.5216 33.6971C35.5693 33.8237 35.6712 33.8362 35.4378 33.7835L35.4118 33.7776C35.1506 33.7187 34.8913 33.6602 34.6298 33.6177Z" stroke="#046511" stroke-width="2.94" stroke-linecap="round"/>
</svg>
