<svg width="235" height="22" viewBox="0 0 235 22" fill="none" xmlns="http://www.w3.org/2000/svg">
<path opacity="0.3" d="M7.5 7.5C20.751 7.5 28.0068 9.70215 41.2578 9.70215C57.8802 9.70215 74.5026 9.70215 91.125 9.70215C102.762 9.70215 114.214 9.90851 125.789 11.1425C132.033 11.8082 138.349 12.5531 144.641 12.5828C150.58 12.6108 156.533 12.4412 162.469 12.6468C170.17 12.9135 177.801 13.8082 185.482 14.2472C191.359 14.583 197.551 15.1486 203.342 13.7991C207.186 12.9034 211.271 12.7899 215.185 12.2307C218.972 11.6897 218.208 11.932 222 11.5C222.85 11.4032 223.196 11.2979 225.5 10.5" stroke="#92ED00" stroke-width="14" stroke-linecap="square"/>
</svg>
