<svg width="337" height="507" viewBox="0 0 337 507" fill="none" xmlns="http://www.w3.org/2000/svg">
<path d="M282 51.1022C279.027 53.5605 275.22 54.6711 271.748 56.2285C265.642 58.9676 259.493 61.6012 253.376 64.3183C239.802 70.3481 226.013 75.819 212.654 82.3408C204.693 86.2277 196.795 90.5083 188.599 93.8811C187.382 94.3819 185.457 94.3675 186.501 95.4794C190.367 99.5955 192.477 105.85 194.836 110.874C201.192 124.407 207.684 137.741 215.651 150.424C222.805 161.812 229.963 173.258 236.879 184.787C240.102 190.158 243.213 195.604 246.135 201.137C247.121 203.004 248.371 204.778 249.292 206.667C249.424 206.939 249.435 207.544 249.942 207.297C252.594 206.004 256.01 205.655 258.843 204.842C276.198 199.864 293.089 192.649 307.736 181.99C314.866 176.802 322.054 171.72 329.105 166.436C333.448 163.181 337.909 159.984 342.481 157.032C346.531 154.417 350.974 152.236 355.216 149.983C355.549 149.806 357.907 148.57 357.878 148.418C356.956 143.554 354.78 138.49 353.562 133.602C348.952 115.104 343.077 96.3459 332.74 80.1771C330.197 76.2005 327.282 72.6238 323.853 69.3824C321.808 67.4488 319.222 65.7503 317.412 63.61C315.967 61.9001 313.453 60.4369 311.675 59.0443C309.488 57.3304 307.884 55.0508 305.691 53.3248C304.225 52.1705 302.761 50.8831 301.234 49.8425C299.899 48.9331 299.111 47.5516 297.732 46.6119C296.962 46.0877 296.193 45.5636 295.424 45.0394C294.243 44.2354 293.458 44.5309 292.075 44.2365C289.453 43.6786 286.956 43.0893 284.279 42.7274C282.162 42.4413 280.933 41.5836 278.797 42.1613" stroke="#046511" stroke-width="10" stroke-linecap="round"/>
<path d="M215.939 140.012C216.532 139.291 217.385 138.723 218.115 138.161C221.656 135.436 225.395 132.941 229.087 130.428C239.996 122.999 250.993 115.125 262.736 109.042C274.295 103.054 286.867 99.5884 298.754 94.4098C303.901 92.1676 309.492 90.651 314.361 87.9332" stroke="#046511" stroke-width="10" stroke-linecap="round"/>
<path d="M238.49 170.159C240.599 167.064 243.996 164.556 246.907 162.282C252.844 157.645 258.997 153.365 265.244 149.146C278.707 140.052 292.146 130.608 306.182 122.399C308.97 120.769 312.132 119.868 314.875 118.183C316.429 117.228 317.853 116.477 319.505 115.728C325.731 112.902 332.149 110.294 338.467 107.735" stroke="#046511" stroke-width="10" stroke-linecap="round"/>
<path d="M266.64 66.8271C273.426 71.8767 277.605 79.433 281.935 86.541C286.62 94.2295 290.815 102.285 295.18 110.162C300.238 119.288 304.704 128.751 309.685 137.926C312.338 142.812 314.729 147.7 317.095 152.714C318.723 156.163 320.243 159.652 322.034 162.861" stroke="#046511" stroke-width="10" stroke-linecap="round"/>
<path d="M229.855 84.8584C235.272 90.1445 238.437 96.87 241.706 103.634C245.63 111.751 248.919 120.125 252.616 128.339C258.583 141.596 265.615 153.901 273.238 166.279C277.262 172.813 282.44 179.595 284.834 186.946C285.038 187.573 286.62 190.707 285.266 188.93" stroke="#046511" stroke-width="10" stroke-linecap="round"/>
<path d="M284.107 48.2968C287.159 50.3762 290.212 52.4556 293.264 54.535C294.231 55.194 292.931 54.4558 292.423 54.4597C289.856 54.4789 287.499 55.1153 285.005 55.672C281.568 56.4393 278.252 57.9175 274.825 58.7966C273.889 59.0369 271.138 59.9618 272.062 59.6779C272.797 59.452 273.926 59.5059 274.693 59.3934C277.826 58.9342 280.985 58.4771 284.141 58.225C291.991 57.5982 299.755 57.4575 307.505 58.8291C308.303 58.9704 309.207 59.2161 309.881 59.6754C311.228 60.5933 305.975 60.5614 305.492 60.5994C298.242 61.1692 291.692 63.1535 284.678 64.7191C283.472 64.9883 280.985 65.1948 280.045 66.0775C279.337 66.7421 281.954 66.5322 282.925 66.5117C286.601 66.4338 290.272 66.2076 293.947 66.1067C299.792 65.9461 304.963 67.1713 310.348 69.1948C311.066 69.4646 313.43 70.1265 311.345 70.2515C307.74 70.4675 304.194 70.6535 300.624 71.2222C299.538 71.3952 286.224 72.8461 286.411 73.5902C286.688 74.6938 293.074 75.1082 294.051 75.3273C297.521 76.1054 300.937 77.2757 304.298 78.4285C305.611 78.8787 306.826 79.6437 308.138 80.0489C309.753 80.5474 308.874 80.6249 307.47 80.7268C304.547 80.9391 301.668 81.5019 298.749 81.6861C297.842 81.7433 296.195 81.998 295.559 82.7402C295.054 83.3292 294.503 83.752 294.086 84.4489C293.675 85.1355 295.943 86.3323 296.378 86.6283C297.752 87.5647 298.923 88.4787 297.291 89.7224" stroke="#046511" stroke-width="10" stroke-linecap="round"/>
<path d="M283.669 106.088C284.759 106.831 285.85 107.574 286.94 108.317C287.58 108.753 287.776 108.761 286.855 108.568C284.015 107.974 280.937 108.384 278.083 108.618C274.344 108.924 270.587 109.354 266.89 110.005C265.499 110.25 264.381 110.178 263.197 110.991C262.937 111.169 261.601 111.997 262.169 112.248C263.928 113.023 265.955 112.983 267.826 112.839C271.501 112.557 275.165 112.101 278.838 111.793C284.118 111.351 289.887 110.762 295.134 111.736C295.874 111.873 304.439 114.877 303.544 115.921C303.182 116.343 301.795 116.198 301.357 116.233C297.937 116.503 294.524 116.69 291.097 116.831C284.292 117.11 277.541 118.2 270.761 118.787C267.073 119.106 263.351 118.808 259.689 119.089C258.805 119.157 257.91 118.77 257.033 119.082C256.716 119.195 255.5 119.453 256.455 119.804C257.787 120.295 259.228 120.27 260.625 120.311C263.247 120.386 265.856 120.599 268.475 120.732C275.146 121.069 281.949 121.369 288.437 123.104C289.185 123.304 290.506 123.662 288.991 123.928C285.576 124.527 282.015 124.82 278.569 125.342C275.093 125.869 271.614 126.385 268.16 127.04C267.511 127.163 266.155 127.18 265.608 127.636C263.926 129.037 266.151 130.363 267.604 130.627C270.104 131.082 272.892 131.05 275.43 131.135C276.166 131.159 277.662 131.076 278.263 131.486C278.506 131.651 275.118 133.052 274.874 133.159C272.791 134.075 270.503 135.197 268.748 136.659C268.487 136.876 267.01 137.883 267.063 138.275C267.147 138.894 268.194 139.578 268.596 140.006C269.163 140.61 270.272 142.082 269.7 142.921" stroke="#046511" stroke-width="10" stroke-linecap="round"/>
<path d="M342.087 114.68C340.694 113.941 337.721 114.478 336.206 114.518C335.089 114.548 334.068 114.823 333.061 115.329C332.427 115.648 335.103 115.872 335.589 116.003C338.327 116.746 340.796 118.464 343.384 119.58C345.099 120.32 346.548 121.118 348.091 122.169C348.216 122.254 349.624 123.093 348.856 123.239C346.27 123.729 342.932 122.885 340.317 122.847C336.026 122.784 331.767 122.613 327.486 122.328C326.14 122.239 324.387 121.816 323.101 122.139C321.818 122.461 326.254 123.462 326.553 123.547C334.003 125.659 340.593 128.802 346.954 133.136C347.697 133.642 348.44 134.148 349.182 134.654C349.214 134.676 349.74 135.051 349.445 135.073C347.133 135.251 344.112 134.11 341.868 133.723C331.496 131.933 321.461 129.989 311.616 126.297C311.341 126.194 309.865 125.29 309.56 125.737C309.235 126.214 315.197 128.901 315.328 128.963C324.703 133.407 333.417 139.054 341.973 144.883C342.837 145.472 343.7 146.06 344.564 146.648C344.743 146.771 345.184 147.011 344.648 146.877C342.927 146.447 341.143 146.363 339.396 146.046C335.024 145.251 330.754 144.108 326.542 142.714C325.197 142.268 323.709 141.961 322.42 141.382C321.878 141.138 321.357 140.834 320.754 140.779C320.241 140.732 319.661 140.872 319.204 141.113C318.617 141.423 320.363 142.212 320.83 142.531C324.498 145.029 328.976 147.678 331.666 151.32C332.107 151.917 332.901 152.749 331.715 153.036C330.591 153.308 328.859 153.726 327.947 154.486C326.201 155.94 329.353 156.957 328.332 158.456" stroke="#046511" stroke-width="10" stroke-linecap="round"/>
<path d="M228.055 86.1247C227.655 86.579 223.859 84.2694 223.244 84.0145C222.239 83.5981 221.226 83.3452 220.151 83.2123C219.153 83.0889 218.091 83.3295 217.241 83.856C217.142 83.917 216.351 84.3124 216.735 84.4215C218.815 85.011 220.944 85.3556 223.027 85.9956C226.416 87.0368 230.406 88.0352 233.387 90.0659C233.922 90.4309 235 91.2763 233.621 91.0323C228.906 90.1978 223.81 91.2653 219.048 91.1813C216.024 91.128 213.02 91.5672 209.995 91.4683C208.871 91.4315 207.971 91.5662 206.887 91.7716C205.642 92.0077 202.944 91.894 205.676 92.9203C213.665 95.9221 223.565 92.9538 230.946 97.9822C231.224 98.1715 231.408 98.2626 231.424 98.6165C231.434 98.834 230.763 98.6441 230.723 98.6371C229.064 98.3409 227.383 98.2595 225.708 98.087C218.611 97.3566 211.196 96.0781 204.023 96.4806C202.113 96.5878 200.423 96.9294 198.549 97.2324C196.163 97.6184 200.201 97.6366 200.933 97.7403C208.149 98.7628 215.538 99.3803 222.459 101.848C226.043 103.126 229.454 104.738 232.74 106.637C233.554 107.108 234.316 107.694 235.093 108.223C236.248 109.01 232.342 107.74 230.965 107.505C226.065 106.669 221.186 105.917 216.33 104.848C210.308 103.522 204.288 102.077 198.191 101.16C197.67 101.081 194.709 100.419 194.331 101.157C194.019 101.766 197.931 103.825 198.238 103.99C201.836 105.925 206.246 106.463 210.165 107.446C215.866 108.876 221.579 109.969 226.945 112.423C227.336 112.602 230.936 114.106 230.951 114.43C230.951 114.435 225.412 114.071 225.06 114.056C220.085 113.85 215.1 113.783 210.123 114.009C207.34 114.136 204.589 114.705 201.831 114.918C201.444 114.947 203.098 115.931 203.151 115.954C205.605 117.038 208.247 117.405 210.863 117.912C215.507 118.812 220.169 119.795 224.669 121.206C224.672 121.207 226.195 121.744 225.757 121.827C224.246 122.114 222.693 122.222 221.174 122.533C219.952 122.782 216.599 123.351 215.77 124.568C214.943 125.782 216.285 127.169 217.113 128.04C217.444 128.389 219.516 129.694 218.631 130.07C217.289 130.64 215.353 130.114 214.147 131.033" stroke="#046511" stroke-width="10" stroke-linecap="round"/>
<path d="M263.233 159.217C262.406 158.887 260.019 160.662 259.135 160.923C258.667 161.061 257.63 161.58 258.176 161.952C259.972 163.175 262.287 163.439 264.333 164.052C266.431 164.68 268.495 165.681 270.446 166.671C271.732 167.324 272.909 168.28 274.1 169.092C274.588 169.424 275.373 170.218 274.133 170.179C270.412 170.062 266.733 169.876 262.963 170.02C259.121 170.166 255.33 170.763 251.499 170.998C249.821 171.102 248.106 171.09 246.45 171.404C245.877 171.513 244.77 171.887 245.986 172.187C249.776 173.121 253.443 174.534 257.206 175.573C262.429 177.015 267.427 178.944 272.392 180.923C274.9 181.923 267.175 179.522 264.53 178.983C256.849 177.418 249.098 175.556 241.233 175.232C240.107 175.186 238.556 175.058 237.446 175.399C236.579 175.665 238.988 176.937 239.028 176.957C240.369 177.639 242.016 177.984 243.46 178.363C246.94 179.276 250.417 180.109 253.864 181.159C258.088 182.446 262.399 183.71 266.215 185.985C267.086 186.504 269.617 188.028 268.62 187.847C267.624 187.665 266.457 186.838 265.442 186.54C263.201 185.882 260.918 185.44 258.597 185.173C254.912 184.748 251.44 184.464 247.735 184.485C247.475 184.487 244.149 184.531 245.112 185.187C249.194 187.968 255.067 187.924 259.787 188.541C264.202 189.118 268.723 189.762 273.06 190.803C274.203 191.077 275.51 191.749 273.539 191.713C269.137 191.631 264.946 191.855 260.578 192.393C259.82 192.487 256.001 192.829 256.893 194.603C257.224 195.263 259.773 197.16 258.06 197.098C256.774 197.052 255.342 196.72 254.052 196.531C252.718 196.334 252.852 196.599 253.283 197.861" stroke="#046511" stroke-width="10" stroke-linecap="round"/>
<path d="M230.625 181.834C226.428 187.996 222.23 194.157 218.033 200.318C209.454 212.911 197.106 221.905 185.555 231.593C180.593 235.754 175.437 239.778 169.353 242.134C168.165 242.594 164.402 243.024 163.545 244.281C163.191 244.802 164.757 243.923 165.381 243.835C169.247 243.291 173.231 243.023 177.132 242.924C180.887 242.828 184.627 243.07 188.379 243.179C191.005 243.255 193.916 242.857 196.521 243.346C196.986 243.433 199.149 243.302 198.932 243.664C197.954 245.285 197.58 247.066 197.143 248.901C196.289 252.489 195.32 256.09 194.214 259.609C192.945 263.647 191.819 268.622 191.852 272.916C191.855 273.348 191.074 275.971 191.827 274.865C195.102 270.058 199.146 265.491 202.907 261.062C207.833 255.26 212.315 249.013 217.111 243.097C222.242 236.766 227.31 230.231 232.987 224.409C234.819 222.53 236.727 220.643 238.371 218.601C241.056 215.266 245.202 212.916 247.593 209.407" stroke="#046511" stroke-width="10" stroke-linecap="round"/>
<path d="M247.593 209.408C242.419 221.575 242.347 235.705 242.474 248.749C242.563 257.768 241.537 266.882 242.525 275.886C243.242 282.424 243.034 290.374 246.513 296.272C246.797 296.754 248.684 292.689 248.983 292.1C250.521 289.069 251.505 285.658 252.58 282.447C254.403 277 256.182 271.273 258.606 266.069C259.704 263.711 260.85 261.014 262.292 258.897C262.858 258.066 264.024 254.967 263.994 258.009C263.984 258.936 264.719 260.403 265.171 261.231C266.31 263.322 267.416 265.442 268.909 267.316C273.04 272.503 277.766 276.801 282.713 281.189C285.312 283.494 288.827 286.025 292.347 286.635C293.228 286.787 291.756 284.743 291.488 284.373C289.528 281.677 288.34 278.318 286.974 275.298C284.378 269.56 282.292 263.536 279.908 257.699C278.158 253.413 276.258 249.199 274.702 244.841C272.288 238.082 269.842 231.461 267.025 224.86C265.4 221.053 264.562 217.127 263.49 213.162C263.023 211.436 262.904 209.68 262.594 207.917C262.416 206.902 262.645 205.311 262.155 204.432" stroke="#046511" stroke-width="10" stroke-linecap="round"/>
<path d="M233.825 187.669C232.841 188.703 231.702 189.455 230.595 190.343C230.036 190.792 228.775 191.437 229.906 191.699C231.886 192.156 233.887 193.018 235.83 193.623C236.027 193.684 238.459 194.582 238.161 195.08C238.061 195.247 237.855 195.678 237.635 195.66C236.178 195.545 234.567 195.901 233.142 196.171C229.517 196.858 225.72 198.108 222.331 199.547C220.269 200.422 222.674 200.566 223.889 200.856C227.964 201.827 231.915 203.315 235.89 204.613C237.414 205.11 239.395 205.613 240.771 206.478C242.192 207.371 240.385 206.768 239.573 206.744C232.842 206.545 226.266 208.491 219.678 209.601C219.36 209.655 214.753 210.221 214.829 210.807C214.985 212.017 219.214 212.469 219.92 212.633C223.624 213.493 227.423 214.077 230.992 215.418C231.333 215.546 233.469 216.813 232.803 216.548C232.36 216.371 231.431 216.587 230.977 216.607C227.74 216.755 224.476 217.587 221.287 218.127C215.762 219.062 210.383 220.747 204.792 221.332C204.301 221.383 203.468 221.298 203.026 221.589C202.698 221.805 204.365 222.617 204.471 222.664C207.952 224.218 211.706 225.019 215.292 226.295C215.585 226.399 219.302 227.799 217.527 227.817C211.765 227.877 205.905 229.125 200.383 230.711C198.806 231.164 197.228 231.647 195.66 232.134C195.253 232.26 194.838 232.496 195.382 232.791C196.98 233.661 199.012 233.931 200.792 234.092C203.213 234.309 205.527 234.711 207.922 235.143C209.344 235.399 210.9 235.559 212.279 235.999C212.394 236.036 213.747 236.628 213.62 236.652C211.535 237.048 208.489 236.569 207.092 238.619C205.677 240.696 210.39 242.852 209.248 245.079C208.865 245.826 207.82 246.268 207.134 246.65C206.024 247.27 205.171 248.084 204.14 248.807C203.697 249.118 202.665 250.061 202.496 250.608C201.861 252.665 202.57 249.065 202.669 248.575C203.285 245.529 203.841 242.475 202.482 239.531C201.57 237.554 200.131 235.627 198.345 234.354C197.731 233.916 197.139 233.767 196.58 233.386" stroke="#046511" stroke-width="10" stroke-linecap="round"/>
<path d="M188.809 237.282L192.38 236.15" stroke="#046511" stroke-width="10" stroke-linecap="round"/>
<path d="M248.1 279.202C248.616 278.445 249.132 277.688 249.647 276.931C250.394 275.836 250.404 275.678 249.291 274.92C248.84 274.613 247.545 273.511 247.004 273.73C244.652 274.683 251.074 270.696 253.053 269.108C253.347 268.872 255.972 266.78 255.525 266.435C254.563 265.694 253.494 264.934 252.313 264.629C251.698 264.471 250.983 264.398 250.398 264.159C249.534 263.807 252.758 262.034 252.937 261.928C255.039 260.676 258.054 259.508 259.583 257.487C260.442 256.353 256.518 256.289 256.223 256.315C255.459 256.382 254.689 256.317 253.932 256.438C253.826 256.455 252.444 256.531 252.545 256.398C253.194 255.545 255.027 254.852 255.919 254.311C257.852 253.138 259.792 252.022 261.652 250.734C262.856 249.9 264.072 249.141 265.237 248.253C265.487 248.063 266.165 247.759 266.196 247.365C266.306 245.98 259.794 247.936 259.223 248.131C257.801 248.617 256.339 248.977 254.916 249.47C254.471 249.624 253.574 249.929 254.541 249.355C256.445 248.226 258.225 246.931 259.943 245.538C261.167 244.545 262.677 243.405 263.387 241.957C264.896 238.882 257.515 238.94 256.294 239.204C253.365 239.837 250.671 241.133 248.009 242.415C247.853 242.491 246.683 243.189 247.43 242.87C249.432 242.016 251.332 240.674 253.187 239.549C257.21 237.109 261.086 234.107 264.603 230.973C266.041 229.692 261.998 230.096 261.614 230.21C259.825 230.742 258.005 231.329 256.284 232.054C255.604 232.34 254.486 232.34 253.951 232.883C253.738 233.099 253.497 233.067 253.793 232.804C254.688 232.006 255.879 231.497 256.867 230.824C257.558 230.354 261.026 228.439 260.832 227.413C260.747 226.963 259.774 226.551 259.439 226.323C258.597 225.75 257.889 225.792 256.92 225.866C256.262 225.917 255.67 225.749 255.022 225.974C254.694 226.088 253.957 226.694 254.052 226.36C254.362 225.268 255.68 223.947 256.326 223.042C257.594 221.267 259.011 219.587 260.431 217.931C260.97 217.302 262.359 215.948 262.098 215.006C261.85 214.113 260.117 214.289 259.536 214.365C257.703 214.603 255.74 215.052 253.997 215.684C253.869 215.73 252.241 216.368 252.352 216.147C252.804 215.246 253.543 214.399 254.109 213.568C255.405 211.665 252.525 217.891 251.729 220.052C250.873 222.373 249.407 225.27 249.362 227.804C249.344 228.786 249.443 229.255 249.994 230.074" stroke="#046511" stroke-width="10" stroke-linecap="round"/>
<path d="M269.143 247.192C269.496 248.636 270.996 250.02 272.055 251.016C272.668 251.592 272.653 251.758 272.243 252.36C271.011 254.168 274.724 256.558 275.613 257.712C276.231 258.513 276.982 259.415 277.299 260.388C277.567 261.211 277.376 261.821 277.406 262.639C277.442 263.643 277.472 264.763 277.654 265.722" stroke="#046511" stroke-width="10" stroke-linecap="round"/>
<path d="M48.5712 269.23C49.8234 272.204 52.1776 274.82 53.7791 277.622C58.1058 285.194 61.4953 293.422 65.3014 301.261C72.8358 316.777 78.9037 332.776 84.9999 348.888M48.0854 266.802C69.4647 275.12 90.7303 284.123 112.47 291.492C114.674 292.24 117.007 292.806 119 294.002M58.7712 276.516C63.4719 284.423 67.9715 291.451 74.9078 297.564C87.5935 308.743 101.64 318.705 115.924 327.732C135.579 340.154 156.344 351.135 178.554 358.197C203.389 366.094 229.106 369.394 255.136 367.642C277.595 366.13 299.973 361.128 321.058 353.259C328.015 350.663 335.122 347.636 341.378 343.572C343.256 342.352 345.662 340.743 346.37 338.418C347.009 336.319 345.477 333.378 343.401 332.859" stroke="#EACA2A" stroke-width="10" stroke-linecap="round"/>
</svg>
