<svg width="51" height="22" viewBox="0 0 51 22" fill="none" xmlns="http://www.w3.org/2000/svg">
<path d="M1.65088 2.11133C1.65088 3.08699 1.8315 4.05946 1.85732 5.03799C1.94588 8.39345 1.86947 11.7607 1.86947 15.1174C1.86947 16.4825 1.86947 17.8477 1.86947 19.2129C1.86947 19.3193 1.90612 20.0812 1.81482 20.0356" stroke="#F77B29" stroke-width="2.1" stroke-linecap="round"/>
<path d="M8.80957 5.82715C8.80957 5.94225 8.7973 6.0384 8.75492 6.14896C8.45158 6.94027 7.98 7.68085 7.53447 8.39557C6.88285 9.44086 6.25514 10.5601 5.4093 11.4649C4.93998 11.967 4.45867 12.4545 3.95508 12.9222C3.75969 13.1036 3.56386 13.2873 3.33271 13.4231C3.24582 13.4741 3.0548 13.5189 2.98661 13.587C2.95236 13.6213 3.08307 13.5999 3.1293 13.6144C3.30946 13.6707 3.49755 13.696 3.6788 13.754C5.21877 14.2468 6.76045 15.0206 8.03236 16.0219C8.23848 16.1841 8.58613 16.6473 8.86421 16.6473" stroke="#F77B29" stroke-width="2.1" stroke-linecap="round"/>
<path d="M13.2905 8.0127C13.2905 10.7511 13.2905 13.4896 13.2905 16.228C13.2905 16.7674 13.2905 17.3068 13.2905 17.8461C13.2905 17.9456 13.3267 18.077 13.2358 18.1224" stroke="#F77B29" stroke-width="2.1" stroke-linecap="round"/>
<path d="M12.6895 3.2041C12.3212 3.25014 13.2002 3.71364 12.9354 3.5077C12.747 3.36116 12.334 3.2041 12.0884 3.2041" stroke="#F77B29" stroke-width="2.1" stroke-linecap="round"/>
<path d="M16.6787 6.81055C16.6787 9.4019 17.0021 11.9972 17.2798 14.5704C17.3802 15.5002 17.4984 16.4221 17.4984 17.3574" stroke="#F77B29" stroke-width="2.1" stroke-linecap="round"/>
<path d="M17.717 8.34016C17.717 7.71783 17.6516 7.05269 17.7717 6.43966C17.9487 5.53582 18.9729 5.6078 19.6813 5.6078C20.281 5.6078 20.7769 5.66816 21.2114 6.10266C21.4608 6.35208 21.6087 6.68523 21.6516 7.02863" stroke="#F77B29" stroke-width="2.1" stroke-linecap="round"/>
<path d="M24.8213 5.82715C24.8213 8.26561 25.1471 10.7532 25.6167 13.1438C25.8116 14.136 26.0895 15.1269 26.1753 16.1372C26.1928 16.3435 26.2596 16.562 26.0235 16.4833" stroke="#F77B29" stroke-width="2.1" stroke-linecap="round"/>
<path d="M24.1653 1.40039C24.1653 1.53176 24.161 1.66381 24.1653 1.79506C24.1703 1.94314 24.3374 2.11553 24.2625 1.94686C24.1926 1.78973 24.0533 1.72827 23.8921 1.72827" stroke="#F77B29" stroke-width="2.1" stroke-linecap="round"/>
<path d="M29.3569 6.48242C29.3569 8.95321 29.4115 11.4228 29.4115 13.8932C29.4115 14.639 29.4115 15.3849 29.4115 16.1307C29.4115 16.2673 29.5089 16.7442 29.3022 16.5375" stroke="#F77B29" stroke-width="2.1" stroke-linecap="round"/>
<path d="M29.958 7.73942C30.0487 7.34632 30.4983 6.8843 30.7838 6.62523C31.1223 6.31808 31.6512 5.8969 32.1257 5.83892C32.7214 5.76611 33.5615 5.63586 34.1082 5.94821C34.9029 6.40233 35.2934 7.3832 35.5563 8.20696C36.3915 10.8239 36.5791 13.6124 37.2018 16.2826C37.2351 16.4255 37.774 18.067 37.6633 18.1224" stroke="#F77B29" stroke-width="2.1" stroke-linecap="round"/>
<path d="M37.2808 8.2317C37.3525 7.60405 37.7699 7.10593 38.1551 6.63478C38.9117 5.70936 39.8573 4.98872 40.9755 4.54908C41.2843 4.42769 41.5853 4.35782 41.9167 4.35782C42.3647 4.35782 42.9931 4.29764 43.4134 4.48533C44.3315 4.89537 44.6028 6.20124 44.7371 7.06589C45.1677 9.83899 45.0953 12.6891 45.0953 15.4876C45.0953 15.9424 45.0728 16.3227 44.986 16.7567" stroke="#F77B29" stroke-width="2.1" stroke-linecap="round"/>
<path d="M49.904 15.3359C49.904 15.9622 49.6059 16.5085 49.3849 17.0816C49.2125 17.5285 48.8657 18.0708 48.8657 18.5601" stroke="#F77B29" stroke-width="2.1" stroke-linecap="round"/>
</svg>
