<svg width="99" height="35" viewBox="0 0 99 35" fill="none" xmlns="http://www.w3.org/2000/svg">
<path d="M2.62402 6.02197V23.6618C2.62402 24.8624 2.723 26.0164 2.79202 27.1898C2.81353 27.5554 2.62402 26.7732 2.62402 26.5178M2.62402 11.3979C3.20901 10.0085 4.01653 8.91599 5.06 7.79523C5.59026 7.22569 6.42384 6.0455 7.24398 5.86325C9.34338 5.39671 10.9907 7.13279 11.9573 8.75655C13.526 11.392 13.6096 14.8516 14.0106 17.8191C14.5132 21.5386 14.9428 25.2751 15.3919 29.0004C15.5252 30.1056 15.7279 33.4362 15.7279 32.323C15.7279 29.8596 15.6251 27.424 15.3919 24.9684C15.0941 21.833 15.2239 18.661 15.2239 15.5138C15.2239 13.0612 15.4153 10.7904 15.9706 8.39255C16.2972 6.98222 16.4908 5.20182 17.2492 3.92193C18.5427 1.73915 22.185 1.79838 24.0438 3.17527C27.8551 5.9984 28.2802 12.3646 28.6638 16.6058C28.9544 19.8189 28.9289 23.0636 29.2051 26.2751C29.2961 27.3331 29.1691 28.5375 29.5038 29.5417M44.4557 7.02995C43.7442 6.39754 41.7544 6.87618 40.909 7.11395C39.1965 7.59561 37.9661 8.42949 36.8211 9.79259C35.1007 11.8407 33.4123 16.4436 35.9251 18.4538C37.1126 19.4038 38.5286 20.178 39.8264 20.9645C41.1257 21.7519 42.5568 22.5257 44.101 22.6445C47.3043 22.8909 49.2772 18.6616 49.8223 16.0272C50.0128 15.1064 50.2792 13.726 49.7943 12.8726C49.3535 12.0968 49.0685 11.2839 48.787 10.4637M48.787 10.4637C48.6378 10.029 48.4896 9.59227 48.3196 9.15793C48.0557 8.48354 47.7847 7.63515 47.3956 7.02995C47.3043 6.88783 46.2356 5.81586 46.0703 5.88196C45.9352 5.93602 47.3021 7.86923 47.349 7.94461C47.8608 8.76795 48.3377 9.60899 48.787 10.4637ZM48.787 10.4637C50.1626 13.0803 51.2802 15.8253 52.3516 18.5845C53.4205 21.3373 54.406 24.2178 55.7489 26.8538C55.9902 27.3275 56.3669 28.1922 56.8876 28.3657M67.3034 6.69392C67.2542 6.3002 65.4379 6.53604 65.1288 6.61926C63.7126 7.00054 62.7385 9.18031 61.9275 10.2126C60.9472 11.4602 60.0584 12.7246 59.5755 14.2538C59.1981 15.4488 59.1176 17.7352 59.5755 18.9205C59.8962 19.7505 60.5579 20.218 61.2555 20.7218C62.784 21.8257 64.3941 23.3258 66.3794 23.3258C67.4261 23.3258 67.8901 22.8297 68.4608 21.9631C70.0177 19.5988 71.1933 16.8845 71.9208 14.1281M71.9208 14.1281C71.9983 13.8344 72.0708 13.5402 72.1381 13.2459C72.3484 12.3256 71.6242 11.0132 71.0741 10.3059C70.7914 9.94249 70.5886 9.54592 70.3246 9.17771M71.9208 14.1281C71.5598 13.1402 71.1998 12.1521 70.8407 11.1645C70.6316 10.5894 70.3608 9.81588 70.3274 9.2139C70.3267 9.20163 70.3258 9.18957 70.3246 9.17771M71.9208 14.1281C72.5097 15.7395 73.1014 17.3504 73.6967 18.9578C74.6212 21.4541 75.4217 23.4085 77.5513 25.0057M70.3246 9.17771C70.2836 9.12057 70.2412 9.06411 70.1967 9.00857C69.8313 8.55178 70.2767 8.70355 70.3246 9.17771ZM81.7513 4.1739V10.1285C81.7513 15.4633 81.3763 20.9602 81.8353 26.2844C81.984 28.0097 82.3194 29.6699 83.0953 31.2216M79.2313 4.50989H89.7126C89.9777 4.50989 91.8177 4.60066 91.3272 4.84588M81.5833 16.1018H90.8232M95.3592 25.5098C95.3592 26.0292 95.4582 26.5178 96.1152 26.5178C96.406 26.5178 97.1976 26.093 96.7032 25.8458" stroke="#FF3755" stroke-width="4" stroke-linecap="round"/>
</svg>
