<svg width="124" height="40" viewBox="0 0 124 40" fill="none" xmlns="http://www.w3.org/2000/svg">
<path d="M2.41808 35.0068V23.8408C2.41808 22.4446 2.41153 21.0481 2.42515 19.6518C2.43318 18.8289 2.36717 17.8659 2.57375 17.0478C2.75111 16.3455 3.2717 15.1634 3.96065 14.8189C4.75559 14.4214 5.82384 14.2889 6.69201 14.4297C8.93037 14.7927 9.72182 16.7872 10.6404 18.6612C11.4627 20.3386 12.0313 22.1334 12.6642 23.8833C12.7484 24.1162 12.9014 24.4088 13.0436 24.7121M13.0436 24.7121C13.2156 25.0788 13.3718 25.4612 13.3718 25.7726C13.3718 26.2643 13.1815 25.3997 13.0436 24.7121ZM13.0436 24.7121C12.9708 24.349 12.9126 24.0352 12.9048 23.9965C12.319 21.1086 11.9299 18.3572 11.7797 15.4133C11.6775 13.4107 11.5482 11.3843 12.2892 9.48356L12.2927 9.47451C12.619 8.63752 13.4149 6.59557 14.4473 6.37717C15.8507 6.08031 16.7935 7.73653 17.5608 8.64151C20.0897 11.6243 21.5282 15.2993 22.7405 18.9867C24.4204 24.0963 25.3065 29.4554 26.2643 34.7238C26.4077 35.512 26.7787 36.4097 27.255 37.0447M45.9782 9.91522H42.794C41.0445 9.91522 39.0235 9.73474 37.4091 10.5167C33.1199 12.5943 31.3659 17.1817 31.3308 21.7747C31.3228 22.8277 31.2802 23.9316 31.7978 24.8881C32.3563 25.9203 33.322 26.8104 34.2603 27.4921C35.9906 28.7493 38.1851 29.9081 40.2962 30.3438C42.191 30.7347 43.3797 30.7734 44.8744 29.3248C47.1255 27.1429 48.6402 23.7942 49.6153 20.8689C49.9163 19.9661 50.1145 19.0463 50.1531 18.0951C50.1737 17.5852 50.2865 16.8733 50.2622 16.2299M50.2622 16.2299C50.2486 15.8713 50.1925 15.5339 50.054 15.2647C49.9401 15.0432 49.7699 14.8408 49.5918 14.641M50.2622 16.2299C50.0506 15.7019 49.829 15.1687 49.5918 14.641M50.2622 16.2299C50.355 16.4614 50.4458 16.6919 50.5352 16.9205C52.0184 20.7145 53.1117 24.6524 54.6393 28.4332C55.2636 29.9784 55.9582 31.5303 56.9885 32.8416C57.2172 33.1327 57.5613 33.2162 57.8235 33.4784M49.5918 14.641C49.394 14.4192 49.1865 14.2006 49.0351 13.9627C48.7531 13.5196 48.6349 12.978 48.4729 12.459M49.5918 14.641C49.2553 13.8924 48.8876 13.1549 48.4729 12.459M48.4729 12.459C48.3522 12.0725 48.2073 11.6986 47.9524 11.387C47.4902 10.822 47.7866 11.4044 47.9878 11.6984C48.1566 11.9451 48.318 12.1991 48.4729 12.459ZM60.3709 11.0615C60.4431 14.6016 61.3225 18.1555 61.7719 21.6614L61.7745 21.6811C62.1893 24.9169 62.6025 28.14 63.1447 31.3556C63.3859 32.7865 63.7461 34.1936 64.0363 35.6154C64.1019 35.937 64.1775 36.2517 64.3193 36.5353M59.9887 15.6468C62.5702 11.8462 65.9199 8.55904 70.5745 7.7216C72.4233 7.38897 74.2352 7.3678 76.1009 7.3678C77.3929 7.3678 78.193 7.77408 78.8464 8.91745C79.6096 10.253 79.9953 11.7512 80.2687 13.2551C80.7736 16.0323 81.0867 18.8063 81.1249 21.6331C81.1608 24.2884 81.2212 26.9483 81.3584 29.6007C81.4098 30.5945 81.6414 31.6051 81.6414 32.5868M89.4109 9.151C89.4109 15.3287 89.1101 21.5494 90.1115 27.669C90.3042 28.8469 90.4591 29.9747 91.5762 30.4216M88.392 2.40039C88.392 3.21119 88.5067 4.03421 89.5383 3.51841C90.8313 2.87193 89.5187 2.40039 88.6467 2.40039M107.981 9.88751H102.743C101.094 9.88751 96.9913 9.58826 96.7174 12.007C96.5402 13.5723 99.6533 16.3121 100.513 17.1334C102.161 18.708 103.971 19.9368 106.231 20.399C110.691 21.3112 116.044 19.0358 119.712 22.7033C120.772 23.7632 123.172 28.6128 121.265 29.7397C117.327 32.0667 113.368 34.1686 108.917 35.3467C105.94 36.1347 102.649 36.2506 100.353 33.9542C99.8264 33.4278 100.217 31.2713 100.217 30.5161" stroke="#5EA0C6" stroke-width="4" stroke-linecap="round"/>
</svg>
