<svg width="125" height="40" viewBox="0 0 125 40" fill="none" xmlns="http://www.w3.org/2000/svg">
<path fill-rule="evenodd" clip-rule="evenodd" d="M123.686 0.039972C124.279 0.206758 124.625 0.822933 124.458 1.41624C124.343 1.82448 124.291 2.21825 124.228 2.70109C124.205 2.87309 124.181 3.05639 124.152 3.25567C123.828 5.48147 123.716 7.74265 123.633 10.0557C123.62 10.4146 123.607 10.7751 123.595 11.137C123.529 13.0899 123.462 15.0814 123.278 17.0588C123.122 18.7362 122.893 20.419 122.518 22.0936C122.423 22.5162 122.295 23.0718 122.037 23.6007C121.981 23.7158 121.825 24.0121 121.481 24.1956C121.036 24.4326 120.614 24.3206 120.389 24.2109C120.225 24.1312 120.098 24.0207 120.074 24.0005L120.071 23.9979C120.058 23.9871 120.05 23.9801 120.045 23.976C119.408 23.54 119.015 23.0656 118.623 22.535C116.795 20.0573 115.39 17.3077 114.059 14.6546C113.816 14.1693 113.549 13.663 113.275 13.1431C113.046 12.7079 112.811 12.2632 112.581 11.8132C112.581 11.8264 112.581 11.8397 112.581 11.8529C112.574 12.7528 112.621 13.6917 112.714 14.5893C112.795 15.38 112.824 16.1717 112.851 16.9204C112.856 17.0512 112.861 17.1806 112.866 17.3086C112.9 18.1867 112.944 19.0123 113.073 19.8256C113.36 21.6423 113.895 23.3743 114.491 25.2075C114.681 25.7937 114.36 26.4232 113.774 26.6135C113.188 26.8038 112.558 26.483 112.368 25.8968C111.773 24.064 111.185 22.1824 110.868 20.1736C110.718 19.2203 110.67 18.2815 110.636 17.395C110.63 17.2579 110.625 17.1224 110.62 16.9883C110.593 16.2375 110.567 15.5289 110.493 14.8175C110.393 13.8427 110.342 12.8216 110.35 11.8356C110.35 11.8117 110.349 11.7762 110.345 11.706L110.344 11.6851C110.341 11.6261 110.337 11.5452 110.336 11.4642C110.333 11.308 110.333 10.9887 110.454 10.669C110.507 10.5286 110.562 10.3685 110.623 10.1952C110.805 9.67055 111.03 9.02587 111.345 8.44769C111.376 8.39049 111.417 8.31853 111.469 8.24603C111.509 8.19013 111.613 8.04896 111.787 7.9299C111.991 7.79039 112.411 7.61454 112.89 7.82182C113.26 7.98207 113.418 8.27934 113.456 8.35141C113.512 8.45685 113.542 8.55238 113.553 8.58832C113.565 8.62667 113.576 8.66679 113.581 8.68586L113.582 8.69144C113.587 8.70892 113.59 8.71944 113.592 8.72486C114.052 9.83137 114.61 10.8879 115.188 11.9847C115.475 12.5276 115.766 13.0804 116.054 13.6541C117.391 16.32 118.719 18.9064 120.419 21.2098C120.421 21.2121 120.422 21.2144 120.424 21.2167C120.724 19.7877 120.918 18.3339 121.056 16.8523C121.233 14.946 121.298 13.0302 121.364 11.0762C121.377 10.7107 121.389 10.3439 121.402 9.97553C121.486 7.65516 121.6 5.2893 121.943 2.93391C121.962 2.80599 121.98 2.66789 121.999 2.52245C122.067 2.00289 122.147 1.38966 122.31 0.812251C122.476 0.218947 123.092 -0.126814 123.686 0.039972ZM87.862 10.063C87.6223 10.0949 87.358 10.13 87.1545 10.1423C87.0317 10.1497 86.8063 10.147 86.5882 10.1445C86.5304 10.1438 86.4732 10.1431 86.4185 10.1426C86.1139 10.14 85.7666 10.14 85.4418 10.1548C85.394 10.157 85.3482 10.1595 85.3043 10.1622C85.4826 11.5763 85.5501 12.9911 85.6122 14.3581L85.6185 14.4976C85.6369 14.9021 85.655 15.3023 85.6754 15.6989L90.696 14.0687C91.2822 13.8784 91.9116 14.1992 92.102 14.7854C92.2923 15.3716 91.9714 16.0011 91.3852 16.1914L85.8398 17.992C85.8808 18.3989 85.9296 18.8029 85.9893 19.2046C86.4463 22.2816 87.281 25.1325 88.263 28.1568C88.4534 28.743 88.1325 29.3725 87.5463 29.5628C86.9601 29.7532 86.3306 29.4323 86.1403 28.8461C85.1487 25.7921 84.2668 22.7985 83.7817 19.5325C83.5381 17.893 83.4631 16.2344 83.3909 14.6409L83.3827 14.4594C83.3068 12.7895 83.2271 11.189 82.9728 9.62596C82.8724 9.00922 83.2222 8.57737 83.4978 8.37378C83.7368 8.19728 84.0017 8.11481 84.171 8.07131C84.5341 7.97804 84.9708 7.94217 85.3401 7.92533C85.7278 7.90765 86.1246 7.90814 86.438 7.91088C86.5229 7.91163 86.5938 7.91244 86.6584 7.91318C86.7238 7.91392 86.7826 7.91459 86.843 7.91505C86.8974 7.91546 86.9408 7.91555 86.9746 7.91527C87.0116 7.91496 87.0234 7.91428 87.0201 7.91448C87.138 7.90736 87.3157 7.88391 87.5864 7.84817L87.6623 7.83816C87.9507 7.80017 88.3031 7.75521 88.6574 7.73036C89.0048 7.70599 89.404 7.69685 89.781 7.74829C90.1236 7.79503 90.6492 7.91641 91.0479 8.32139C91.4803 8.76056 91.4748 9.4671 91.0356 9.89948C90.6268 10.302 89.9861 10.325 89.5508 9.97188C89.5334 9.96812 89.5099 9.9638 89.4793 9.95962C89.3239 9.93843 89.1001 9.93662 88.8135 9.95672C88.5339 9.97633 88.2414 10.013 87.9538 10.0509C87.9238 10.0548 87.8931 10.0589 87.862 10.063ZM89.5906 9.98278C89.5905 9.98283 89.5885 9.98218 89.5848 9.98065C89.5889 9.98195 89.5907 9.98272 89.5906 9.98278ZM84.6933 10.2428C84.6931 10.2428 84.6959 10.2417 84.7022 10.2397C84.6966 10.2419 84.6935 10.2429 84.6933 10.2428ZM54.9131 7.87394C55.4644 8.14956 55.6878 8.81985 55.4122 9.37109C55.1019 9.99174 54.9055 10.7938 54.7297 11.7369C54.6854 11.9741 54.6419 12.2249 54.5973 12.4823C54.476 13.1809 54.3464 13.9274 54.1722 14.5791C53.8629 15.7356 53.5742 16.8428 53.2845 17.9537C53.011 19.0025 52.7367 20.0547 52.4433 21.1549C52.4015 21.3116 52.3602 21.4633 52.3199 21.6112C52.1698 22.1626 52.0337 22.6623 51.9396 23.1772C51.9385 23.1878 51.9373 23.1996 51.9359 23.2123C51.9298 23.2666 51.9171 23.3654 51.8893 23.4748L51.888 23.4802C51.8721 23.5438 51.8011 23.8275 51.5682 24.0683C51.4165 24.2253 51.143 24.4153 50.7589 24.4238C50.3952 24.4319 50.1327 24.2716 49.9964 24.1626C48.6058 23.0501 47.9655 21.4373 47.453 20.1465C47.3897 19.987 47.3284 19.8324 47.2678 19.6844C46.7127 18.3275 45.8214 17.1855 44.8231 15.9064C44.6051 15.627 44.3819 15.341 44.156 15.0449C44.1574 15.0468 44.1465 15.0343 44.125 15.0098C44.0619 14.9377 43.9074 14.7612 43.7057 14.5387C43.7323 15.3205 43.7831 16.1126 43.8348 16.92C43.8421 17.0335 43.8493 17.1473 43.8566 17.2614C43.8621 17.3485 43.8923 17.6058 43.9394 18.0069C43.9591 18.175 43.9818 18.3684 44.0069 18.5851C44.0878 19.284 44.1858 20.1657 44.2614 21.0358C44.3363 21.8977 44.3924 22.7824 44.3829 23.4767C44.3783 23.8154 44.3578 24.1661 44.2971 24.4632C44.2677 24.6071 44.2161 24.8049 44.1123 24.9983C44.0169 25.1761 43.7759 25.534 43.2915 25.6551C42.6936 25.8046 42.0877 25.4411 41.9382 24.8432C41.8536 24.5046 41.9334 24.1634 42.1272 23.904C42.1389 23.8009 42.1485 23.6502 42.1513 23.4461C42.1592 22.8684 42.1115 22.0751 42.038 21.229C41.9651 20.3912 41.8701 19.5347 41.7898 18.8417C41.7711 18.68 41.7527 18.5231 41.7353 18.3753C41.682 17.9214 41.6389 17.5542 41.6293 17.4028C41.6215 17.2811 41.6137 17.1587 41.6058 17.0357C41.5049 15.4663 41.3978 13.8004 41.4898 12.1448C41.5005 11.9521 41.5706 11.53 41.9704 11.2326C42.3642 10.9397 42.7807 10.9902 42.9555 11.0285C43.2801 11.0997 43.5447 11.2931 43.657 11.3765C43.958 11.6001 44.3084 11.9369 44.6109 12.2445C45.2211 12.865 45.8601 13.599 45.9305 13.6912C46.1196 13.9393 46.3182 14.1926 46.5214 14.4521C47.5274 15.736 48.6501 17.1688 49.3334 18.8393C49.3981 18.9974 49.4603 19.1514 49.5209 19.3015C49.7577 19.8875 49.9698 20.4126 50.2062 20.8781C50.2339 20.7766 50.2609 20.6771 50.2868 20.5799C50.5594 19.5576 50.8393 18.4852 51.12 17.4093C51.4202 16.2586 51.7215 15.104 52.0161 14.0025C52.1629 13.4537 52.2655 12.8622 52.3797 12.2042C52.4281 11.9247 52.4787 11.6332 52.5356 11.3279C52.715 10.3658 52.9549 9.29522 53.416 8.37299C53.6916 7.82175 54.3619 7.59832 54.9131 7.87394ZM42.1055 24.0373C42.1055 24.0373 42.1059 24.0354 42.107 24.0319C42.1061 24.0355 42.1056 24.0372 42.1055 24.0373ZM42.2728 13.1318C42.2726 13.1315 42.2775 13.1341 42.2878 13.141C42.2781 13.1356 42.2729 13.1322 42.2728 13.1318ZM106.135 7.91162C106.743 7.81263 107.316 8.22551 107.415 8.83381C108.102 13.0569 108.543 17.3262 108.603 21.629C108.609 22.0693 108.603 22.4772 108.597 22.8664C108.585 23.629 108.575 24.3199 108.66 25.0426C108.672 25.1459 108.677 25.2449 108.68 25.321C108.682 25.3552 108.683 25.3897 108.684 25.4199L108.684 25.4316C108.685 25.4662 108.686 25.4955 108.688 25.5234C108.69 25.5808 108.693 25.6151 108.696 25.6365C108.696 25.6368 108.696 25.6371 108.696 25.6374C108.867 26.2152 108.547 26.8273 107.97 27.0145C107.384 27.2048 106.754 26.8839 106.564 26.2977C106.478 26.0314 106.464 25.7611 106.458 25.6236C106.455 25.5446 106.453 25.4888 106.451 25.446C106.449 25.3797 106.448 25.3445 106.443 25.3022C106.341 24.4332 106.354 23.491 106.366 22.6506C106.371 22.2982 106.375 21.9636 106.371 21.6599C106.313 17.4883 105.886 13.3305 105.212 9.19228C105.113 8.58397 105.526 8.01061 106.135 7.91162ZM103.388 9.95204C103.578 10.5382 103.258 11.1677 102.671 11.358C102.082 11.5495 101.517 11.6994 100.868 11.7615C100.101 11.8348 99.3171 11.8827 98.5561 11.9291L98.5462 11.9297C98.0399 11.9607 97.5435 11.991 97.0567 12.0279C97.0618 12.081 97.068 12.1378 97.0754 12.1981C97.1128 12.5041 97.1706 12.8312 97.2262 13.123C97.2401 13.1964 97.2553 13.274 97.2703 13.3509C97.3074 13.5403 97.3436 13.7253 97.3588 13.8321C97.417 14.242 97.472 14.6532 97.5241 15.0654L100.758 14.0152C101.345 13.8248 101.974 14.1457 102.164 14.7319C102.355 15.3181 102.034 15.9476 101.448 16.1379L97.7829 17.3279C98.0319 19.7364 98.2065 22.1593 98.378 24.5394C98.4131 25.0263 98.448 25.5115 98.4835 25.9943C98.5286 26.609 98.0669 27.1438 97.4522 27.1889C96.8376 27.2341 96.3027 26.7724 96.2576 26.1577C96.2219 25.6709 96.1868 25.1839 96.1516 24.6967C95.896 21.1516 95.6401 17.6026 95.1491 14.146C95.1422 14.0973 95.1258 14.0137 95.0998 13.8812C95.0822 13.7915 95.0602 13.6794 95.0337 13.5405C94.9754 13.2342 94.9065 12.8494 94.86 12.4688C94.8159 12.1075 94.7809 11.6688 94.8251 11.2837C94.8464 11.0981 94.8962 10.8221 95.0463 10.5576C95.2184 10.2543 95.5589 9.92096 96.0882 9.87036C96.8558 9.797 97.6395 9.74914 98.4007 9.70265L98.4102 9.70207C99.1814 9.65497 99.9297 9.60916 100.656 9.53979C101.077 9.49952 101.468 9.40224 101.982 9.23531C102.568 9.04497 103.198 9.36587 103.388 9.95204ZM97.046 11.5142C97.0462 11.5143 97.0457 11.5173 97.0443 11.523C97.0453 11.517 97.0459 11.5142 97.046 11.5142ZM11.2855 15.369C11.288 15.3827 11.2904 15.3963 11.2928 15.4099C11.4145 16.0921 11.5321 16.7512 11.6266 17.4127C11.8302 18.8379 12.0232 20.2902 12.217 21.7487C12.4641 23.6085 12.7126 25.4784 12.9861 27.315C13.0722 27.893 13.1333 28.4377 13.197 29.0053C13.2446 29.4292 13.2936 29.866 13.3555 30.339C13.4921 31.3827 13.6797 32.4748 14.0347 33.5398C14.2296 34.1245 14.8615 34.4405 15.4462 34.2456C16.0309 34.0507 16.3469 33.4187 16.152 32.834C15.8639 31.9698 15.6984 31.0421 15.5684 30.0493C15.5191 29.6722 15.4723 29.2598 15.4243 28.837C15.354 28.2164 15.281 27.5733 15.1936 26.9863C14.9186 25.1399 14.6774 23.3231 14.4349 21.4959C14.242 20.0428 14.0483 18.5832 13.836 17.097C13.7355 16.3934 13.6087 15.6832 13.4858 14.9946C13.4512 14.8007 13.4169 14.6086 13.3836 14.4188C13.2296 13.541 13.0927 12.6943 13.0167 11.8586C13.0019 11.6957 12.9692 11.4207 12.8428 11.167C12.778 11.0368 12.6207 10.7731 12.2924 10.6113C11.9064 10.4211 11.5256 10.485 11.2727 10.6037C11.0569 10.705 10.9184 10.8483 10.8525 10.9228C10.7766 11.0087 10.7186 11.0944 10.6776 11.1605C10.5955 11.2927 10.5265 11.4359 10.4725 11.5573C10.3624 11.8045 10.2586 12.0897 10.1817 12.3068C10.1524 12.3895 10.1378 12.4312 10.1244 12.4696C10.1121 12.5047 10.1008 12.537 10.0802 12.5952C10.0613 12.6484 10.0505 12.6774 10.0457 12.6902C10.0422 12.6996 10.042 12.7002 10.0443 12.6951C9.03273 14.9711 7.96788 17.2338 6.82064 19.4315C6.47138 18.9188 6.1942 18.4091 5.89099 17.8516C5.69612 17.4932 5.49051 17.1151 5.2481 16.7038C4.7151 15.7993 4.06251 14.9932 3.464 14.254C3.28653 14.0348 3.11381 13.8215 2.95038 13.6132C2.95039 13.6132 2.9504 13.6132 2.9504 13.6132C2.95075 13.6129 2.93462 13.5886 2.89681 13.5224C2.88761 13.5064 2.87049 13.4759 2.85049 13.4403C2.81562 13.3782 2.772 13.3005 2.74629 13.2562C2.74478 13.2536 2.74295 13.2504 2.74081 13.2467C2.70706 13.1881 2.59732 12.9972 2.45338 12.8532C2.41095 12.8107 2.2912 12.6945 2.10318 12.6096C1.89228 12.5143 1.44373 12.4049 1.004 12.702C0.650871 12.9406 0.558258 13.2845 0.534996 13.3801C0.502798 13.5123 0.5 13.6245 0.5 13.681V32.4922C0.5 33.1085 0.999611 33.6081 1.61591 33.6081C2.23221 33.6081 2.73183 33.1085 2.73183 32.4922V16.9392C2.94146 17.2271 3.13935 17.5213 3.32529 17.8368C3.4864 18.1102 3.65731 18.4226 3.83796 18.7529C4.21063 19.4341 4.62478 20.1911 5.08 20.838L5.9926 20.1958L5.08 20.838C5.26123 21.0955 5.40826 21.3536 5.58116 21.6571C5.6562 21.7888 5.73612 21.9291 5.82581 22.0815C5.91464 22.2326 6.12343 22.5302 6.52425 22.6663C6.99022 22.8245 7.38971 22.6628 7.61191 22.5098C7.81005 22.3733 7.93382 22.2064 7.99676 22.1134C8.06873 22.007 8.12488 21.9002 8.16639 21.8138C8.24903 21.6419 8.31568 21.4618 8.35799 21.3445C8.37144 21.3072 8.38036 21.2821 8.38787 21.261C8.39487 21.2413 8.40065 21.2251 8.40774 21.2056C9.42911 19.2931 10.3824 17.3353 11.2855 15.369ZM8.42085 21.1707C8.42085 21.1708 8.4199 21.1733 8.41809 21.1777C8.41994 21.1728 8.42084 21.1707 8.42085 21.1707ZM0.78545 14.3258C0.78588 14.3265 0.786499 14.3274 0.787318 14.3287C0.782241 14.3215 0.781513 14.3199 0.78545 14.3258ZM10.788 12.0082C10.7865 12.0014 10.7859 11.9977 10.786 11.9975C10.7861 11.9973 10.7868 12.0007 10.788 12.0082ZM81.1469 12.2987C81.264 11.9191 81.174 11.4889 80.8758 11.186C80.4434 10.7468 79.7369 10.7413 79.2977 11.1737C79.0736 11.3943 78.9847 11.6472 78.9466 11.8063C78.9071 11.9714 78.9008 12.1244 78.9028 12.2388C78.9067 12.467 78.9475 12.702 78.9922 12.9044C79.0837 13.3191 79.2401 13.8059 79.399 14.259C79.5609 14.7201 79.7391 15.1846 79.8853 15.5617C79.9063 15.6159 79.9263 15.6673 79.9452 15.7162C80.0672 16.0307 80.1464 16.2348 80.1768 16.3282C80.1997 16.3988 80.2225 16.4688 80.245 16.5382C80.5888 17.5942 80.8893 18.5172 80.9962 19.4776C81.0543 19.9991 81.1407 20.5423 81.2241 21.0668L81.2373 21.1498C81.3263 21.7103 81.4115 22.2552 81.4693 22.7939C81.5864 23.8836 81.5761 24.8324 81.3136 25.6297C80.9402 26.7632 79.9252 27.7079 78.6805 28.3216C78.519 28.4013 78.3786 28.4644 78.2539 28.5092C78.192 28.5315 78.1416 28.5464 78.1016 28.5562C76.9497 26.6743 76.3152 24.5333 75.6458 22.2741C75.4229 21.5218 75.1961 20.7563 74.945 19.9829L73.0808 14.2417C72.8904 13.6555 72.261 13.3346 71.6748 13.525C71.0886 13.7153 70.7677 14.3448 70.9581 14.9309L72.8222 20.6722C73.0316 21.317 73.2328 21.9982 73.44 22.6994C74.138 25.0624 74.9031 27.6523 76.2733 29.8429C76.4875 30.1853 76.7811 30.46 77.1517 30.6282C77.5135 30.7923 77.876 30.8223 78.1859 30.7976C78.7633 30.7517 79.3102 30.4995 79.6676 30.3233C81.2224 29.5566 82.806 28.2326 83.4334 26.3279C83.8455 25.0767 83.8165 23.7484 83.6884 22.5556C83.6237 21.953 83.5297 21.3553 83.4415 20.7996L83.4313 20.736C83.3453 20.1948 83.2665 19.6987 83.2143 19.2306C83.0809 18.0326 82.7111 16.9001 82.3814 15.8903C82.3538 15.8057 82.3264 15.7219 82.2995 15.639C82.2478 15.4799 82.1398 15.2017 82.0248 14.906C82.0055 14.8561 81.9859 14.8057 81.9663 14.7552C81.821 14.3803 81.654 13.9446 81.505 13.52C81.3532 13.0875 81.2333 12.703 81.1715 12.4234C81.1609 12.375 81.1528 12.3336 81.1469 12.2987ZM66.9998 13.1851C66.9893 13.159 66.9817 13.1371 66.9764 13.121C66.9443 13.0237 66.935 12.9462 66.9318 12.9139C66.9271 12.8669 66.9277 12.8329 66.9284 12.8202C66.9287 12.8164 66.9288 12.8146 66.9287 12.8148C66.9287 12.815 66.9285 12.8169 66.9284 12.8202C66.9278 12.827 66.9264 12.8402 66.9236 12.861C66.911 12.9541 66.8923 13.0444 66.8791 13.1084C66.875 13.1284 66.8714 13.1458 66.8687 13.1599M66.8342 16.3527C66.8408 16.4241 66.8474 16.4946 66.8539 16.5639C66.8689 16.7228 66.8832 16.8759 66.8956 17.0221C67.22 20.8474 67.5717 24.6609 67.9428 28.4801C68.2394 31.5327 68.6881 34.5244 69.2149 37.521C69.2117 37.5032 69.2159 37.5358 69.2305 37.6848L69.2311 37.6913C69.2422 37.8044 69.2566 37.9525 69.2727 38.0859L69.2737 38.0942C69.2849 38.1881 69.3106 38.4024 69.3649 38.5701C69.3714 38.5904 69.4282 38.7844 69.5832 38.9694C69.6619 39.0633 69.8948 39.3104 70.3006 39.3632C70.765 39.4236 71.0945 39.1907 71.2463 39.0362C71.3843 38.8957 71.4514 38.7531 71.4765 38.6964C71.5079 38.6256 71.5267 38.5643 71.5372 38.5262C71.5584 38.45 71.5702 38.3807 71.577 38.3358C71.6126 38.0996 71.5714 37.8695 71.472 37.6709C71.4651 37.6044 71.4583 37.5353 71.4517 37.4679L71.4491 37.4406C71.4407 37.3537 71.4275 37.2167 71.4131 37.1352C70.8925 34.1739 70.4535 31.242 70.1642 28.2643C69.7938 24.4522 69.443 20.648 69.1195 16.8335C69.1044 16.6555 69.0886 16.482 69.0732 16.3126C68.9802 15.2872 68.9006 14.4108 69.0602 13.5818L69.0603 13.5817C69.0546 13.6111 69.1077 13.3642 69.1354 13.1597C69.1459 13.0817 69.172 12.886 69.1525 12.6916C69.1468 12.6348 69.1336 12.5364 69.096 12.4224C69.0642 12.3257 68.9755 12.0938 68.7425 11.8983C68.4505 11.6534 68.0785 11.5865 67.7519 11.6638C67.4911 11.7255 67.321 11.8625 67.2514 11.9234C66.3989 12.6694 65.6491 13.8091 65.1762 14.737C64.9299 15.2201 64.6542 15.6491 64.3472 16.1269C64.2415 16.2914 64.1321 16.4617 64.0189 16.642C63.5955 17.3161 63.1542 18.081 62.8593 19.0014C62.6177 19.7555 62.4082 20.5139 62.207 21.2512C62.1891 21.317 62.1712 21.3825 62.1534 21.4479C62.0745 21.7376 61.9965 22.0237 61.9175 22.3073C61.878 22.2376 61.8375 22.1682 61.7958 22.0997C60.8136 20.4834 59.9299 18.7993 59.0299 17.0845C58.9519 16.9357 58.8736 16.7866 58.7952 16.6374C58.7957 16.6382 58.7943 16.6355 58.7909 16.6284C58.7844 16.6151 58.7703 16.5863 58.7462 16.5362C58.7128 16.4669 58.6684 16.3742 58.6162 16.265C58.5849 16.1995 58.5508 16.1282 58.5149 16.0529C58.4319 15.8791 58.339 15.6846 58.2471 15.4927C58.1155 15.2181 57.9836 14.9441 57.8825 14.7382C57.8325 14.6363 57.787 14.5448 57.7517 14.4765C57.7352 14.4445 57.7147 14.4056 57.6945 14.37C57.6866 14.3561 57.6655 14.3192 57.6373 14.2777L57.6371 14.2774C57.6267 14.2621 57.589 14.2066 57.5319 14.1445C57.5074 14.1179 57.4361 14.0418 57.3257 13.9687L57.3236 13.9673C57.2661 13.9292 56.8774 13.6712 56.3645 13.8378C55.9096 13.9855 55.6976 14.3383 55.621 14.4876C55.5308 14.6632 55.4842 14.8389 55.4576 14.962C55.4028 15.216 55.3815 15.4982 55.3712 15.7255C55.3604 15.9642 55.3598 16.2009 55.3601 16.3792C55.3602 16.4336 55.3602 16.4778 55.3603 16.5133C55.3604 16.6278 55.3605 16.6528 55.3615 16.6418C54.8837 21.7763 54.6403 27.2129 56.3221 32.3925C56.5125 32.9786 57.142 33.2995 57.7281 33.1092C58.3143 32.9189 58.6352 32.2894 58.4449 31.7032C57.1121 27.5985 57.0873 23.2459 57.4175 18.8142C58.1984 20.2984 59.0041 21.8033 59.8886 23.2587C60.0303 23.492 60.1557 23.7406 60.3047 24.0365C60.3261 24.0789 60.348 24.1223 60.3704 24.1667C60.5317 24.4856 60.7224 24.8552 60.9585 25.2082C60.97 25.2333 61.0064 25.312 61.0202 25.3408C61.0461 25.3951 61.0906 25.4862 61.1475 25.5773C61.1762 25.6233 61.2216 25.6915 61.284 25.7635C61.337 25.8247 61.4583 25.9551 61.6521 26.0539M60.9433 25.1767C60.9434 25.1769 60.9445 25.179 60.9468 25.1835C60.9443 25.1789 60.9431 25.1764 60.9433 25.1767ZM57.6427 15.4189C57.6426 15.4193 57.6422 15.421 57.6412 15.4241C57.6422 15.4201 57.6427 15.4184 57.6427 15.4189ZM34.7106 13.1402C34.747 13.1457 34.7823 13.1509 34.8164 13.156C36.4752 13.4007 37.728 14.6075 38.5632 15.4122L38.6 15.4476C39.3842 16.2027 39.9595 16.9966 40.2617 17.9373C40.5636 18.8772 40.557 19.8528 40.3679 20.9096C39.5808 25.3083 34.5832 28.6288 30.1485 26.3696C29.0745 25.8225 28.6629 24.8636 28.5123 24.0198C28.4012 23.3979 28.414 22.7001 28.4232 22.1911C28.4255 22.0666 28.4276 21.9535 28.4276 21.8554C28.4276 21.2058 28.4677 20.5653 28.5163 19.9493C28.1649 19.7195 27.9587 19.3001 28.022 18.857C28.1284 18.1117 28.3929 17.3888 28.7238 16.7283C28.7675 16.4894 28.8874 16.2771 29.0572 16.1175C29.5338 15.3101 30.1092 14.5731 30.6552 13.9724C31.3193 13.242 32.1978 13.0389 32.9139 13.0025C33.5659 12.9694 34.2345 13.0692 34.7106 13.1402ZM30.9324 17.3323C30.9149 18.0633 30.8539 18.7825 30.796 19.4641L30.7899 19.5359C30.7215 20.3428 30.6594 21.0998 30.6594 21.8554C30.6594 22.0365 30.6567 22.206 30.6542 22.3664C30.6467 22.8441 30.6405 23.2418 30.7094 23.6276C30.7889 24.0731 30.933 24.2645 31.1616 24.381C34.0106 25.8323 37.5957 23.7311 38.171 20.5164C38.3202 19.6828 38.2914 19.1012 38.1368 18.6198C37.9824 18.1391 37.6669 17.6474 37.0519 17.0552C36.1167 16.1546 35.3508 15.4908 34.4906 15.3639L34.4412 15.3566C33.9132 15.2786 33.4489 15.21 33.0271 15.2314C32.6064 15.2528 32.4127 15.3571 32.3067 15.4737C31.8178 16.0115 31.3214 16.6565 30.9324 17.3323ZM18.1344 14.6512C18.4428 14.2596 18.9062 14.0085 19.4778 14.0085C21.7192 14.0085 24.1446 14.4715 26.1208 16.0611C27.3766 17.0712 27.822 18.5223 27.7211 19.8956C27.6218 21.2466 26.9979 22.5827 26.033 23.5476C24.5627 25.0179 22.2349 25.4174 20.5259 25.3319C19.0659 25.2589 17.931 24.4096 17.185 23.4157C16.4416 22.4255 15.9918 21.1806 15.9246 20.0375C15.8718 19.1397 15.8899 18.1931 15.9069 17.3039C15.9149 16.8852 15.9227 16.4792 15.9227 16.097C15.9227 15.4807 16.4223 14.9811 17.0386 14.9811C17.3316 14.9811 17.5983 15.0941 17.7974 15.2788C17.8655 15.091 17.9699 14.8601 18.1344 14.6512ZM18.1287 17.8962C18.3466 17.928 18.5762 17.8958 18.7881 17.7898C19.288 17.5399 19.5238 17.1105 19.6399 16.8361C19.7244 16.6364 19.7932 16.3906 19.8337 16.2449C21.6674 16.2927 23.3795 16.7203 24.722 17.8002C25.3059 18.2698 25.5526 18.9518 25.4953 19.7321C25.4363 20.5346 25.0516 21.3726 24.4548 21.9695C23.626 22.7983 22.0592 23.174 20.6373 23.1029C20.0353 23.0728 19.4527 22.7191 18.9698 22.0758C18.4842 21.429 18.1935 20.6027 18.1526 19.9064C18.1129 19.2328 18.1168 18.5758 18.1287 17.8962ZM120.153 29.3412C120.343 29.9274 120.022 30.5569 119.436 30.7472C117.651 31.3268 115.841 31.5393 114.116 31.7418C113.679 31.7932 113.248 31.8438 112.823 31.8997C108.753 32.4354 104.586 32.6895 100.538 32.9278C98.3007 33.0594 96.1888 33.5078 93.9809 33.9765C92.8788 34.2105 91.7527 34.4495 90.5753 34.6568C89.8769 34.7797 89.2012 34.8308 88.5694 34.8694C88.4401 34.8773 88.3135 34.8846 88.1889 34.8918C87.6886 34.9208 87.22 34.948 86.7398 35.0015C86.4919 35.0291 86.2474 35.0557 86.0059 35.082C83.9389 35.3068 82.0908 35.5078 80.2167 36.1163C79.7492 36.2681 79.2828 36.3136 78.9506 36.3461L78.9383 36.3473C78.5575 36.3845 78.3556 36.4072 78.195 36.4593C77.6088 36.6497 76.9794 36.3288 76.789 35.7426C76.5987 35.1564 76.9196 34.5269 77.5058 34.3366C77.9158 34.2035 78.351 34.1617 78.6588 34.1321C78.6803 34.13 78.7011 34.128 78.7214 34.126C79.0786 34.0911 79.3177 34.0617 79.5274 33.9936C81.6346 33.3094 83.7182 33.0841 85.7578 32.8636C86.0034 32.8371 86.2484 32.8106 86.4927 32.7834C87.0377 32.7227 87.5799 32.6914 88.0853 32.6622C88.2035 32.6554 88.3197 32.6487 88.4334 32.6417C89.0498 32.6041 89.6208 32.5587 90.1884 32.4588C91.2012 32.2805 92.2429 32.0601 93.3048 31.8354C95.6073 31.3483 98.0044 30.8412 100.406 30.6998C104.464 30.461 108.553 30.2106 112.532 29.687C113.025 29.6221 113.501 29.5658 113.965 29.511C115.661 29.3104 117.192 29.1294 118.747 28.6245C119.333 28.4342 119.963 28.755 120.153 29.3412Z" fill="#046511"/>
</svg>
