<svg width="139" height="61" viewBox="0 0 139 61" fill="none" xmlns="http://www.w3.org/2000/svg">
<path d="M52.2446 13.522H68.7263M75.761 16.1349C75.9031 15.5666 79.5323 15.9339 79.9596 15.9339H95.6595M3.20166 14.929C3.2214 15.7778 3.39046 16.4736 3.62598 17.2962C4.93368 21.864 6.11105 26.4672 7.26623 31.0756C8.67714 36.7041 9.86207 42.3832 11.2526 48.015C11.8497 50.433 12.417 52.8618 13.0393 55.2732C13.2247 55.9916 13.6534 56.7894 13.6534 57.54M3.40271 16.1349C4.6089 17.3411 5.51224 18.7912 6.39531 20.2441C8.75677 24.1295 11.0675 27.9503 13.6311 31.7008C15.5751 34.5448 17.7046 38.5715 20.9898 40.1427C21.3678 40.3234 22.0667 40.6563 22.4973 40.6563C23.0769 40.6563 23.1642 37.1809 23.2008 36.8151C23.8242 30.5806 24.0364 24.1764 25.0209 17.9885C25.3014 16.2252 25.5922 14.2645 26.1599 12.5616C26.3462 12.0027 26.5883 12.0991 26.7293 12.6398C27.1057 14.0825 27.8303 15.4669 28.3261 16.8718C31.0746 24.6592 32.9211 32.7701 35.361 40.6563C36.0456 42.8692 36.7565 45.4574 37.7729 47.4902M34.356 17.1398C34.356 20.6258 34.8226 23.8641 35.6066 27.2789C37.2721 34.5327 38.9806 42.4203 42.9094 48.8747C44.5546 51.5776 46.9211 52.7141 50.0783 52.0683C52.5948 51.5536 52.2038 47.2411 52.2892 45.3908C52.5329 40.1116 52.5212 34.7701 50.9492 29.6685C49.7902 25.9071 48.3376 22.0776 47.8673 18.1448C47.7448 17.1198 47.7969 15.3927 47.2197 14.5269M52.0436 13.321C52.3205 13.3903 52.2352 13.7582 52.2669 13.9799C52.5765 16.147 53.4879 18.3375 54.0982 20.4229C55.743 26.0426 57.1968 31.7172 58.7881 37.3512C59.294 39.1424 59.6062 41.0115 60.1951 42.778C60.2887 43.0591 62.2017 51.0818 62.2017 51M53.8525 30.8076H74.5551M75.761 15.1299C76.0454 15.201 75.9609 15.6217 75.9843 15.8445C76.1801 17.7045 76.6522 19.5394 77.0563 21.3607C78.3505 27.1943 79.3775 33.08 80.663 38.9143C81.1101 40.9434 82.2017 55.5777 82.2017 53.5M77.168 34.4255H89.2277C89.8627 34.4255 90.7036 34.2704 91.2376 34.6264M102.694 15.7329C102.694 19.7836 103.556 23.9576 104.124 27.9378C104.767 32.4474 105.419 36.9593 106.111 41.4603M109.93 12.5171C109.964 12.8376 110.063 13.0616 110.187 13.3657C111.259 15.991 112.04 18.7535 112.901 21.4502C114.437 26.2642 115.882 31.1066 117.412 35.9219C117.993 37.751 118.566 39.5634 119.064 41.4158C119.185 41.8635 119.173 42.2577 119.377 42.6664M108.724 12.3161C110.018 12.617 110.926 13.3295 111.985 14.1362C115.928 17.1407 119.686 20.4381 123.162 23.9738C126.45 27.3179 129.725 30.7769 132.821 34.3027C133.548 35.1302 134.429 36.5069 135.457 36.9938C136.285 37.3862 135.786 34.0125 135.769 33.8226C134.939 24.6445 131.307 15.8668 130.231 6.72168C130.091 5.5346 130.127 2.50173 128.422 3.07026" stroke="#FF3755" stroke-width="6" stroke-linecap="round"/>
</svg>
