<svg width="106" height="49" viewBox="0 0 106 49" fill="none" xmlns="http://www.w3.org/2000/svg">
<path d="M15.1635 12.3496C17.0785 12.7942 18.9356 14.0484 20.6062 15.0283C22.5237 16.1531 24.3944 17.3523 26.2708 18.5431C28.8733 20.1947 31.4208 21.9023 33.9743 23.6276C35.0566 24.3589 36.0853 25.1639 37.1307 25.948C37.3251 26.0937 38.5042 27.2039 38.5042 26.6305C40.3348 25.521 42.0437 24.2655 43.947 23.2691C45.3526 22.5333 46.8274 21.9461 48.2295 21.1961C50.0014 20.2484 51.699 19.1986 53.4334 18.1847C54.6405 17.479 55.8218 16.716 56.9994 15.9666C57.3441 15.7472 57.8293 15.6206 58.006 15.2671M70.913 33.3477L69.8929 38.5516C69.8367 38.838 69.596 39.3591 69.8498 39.6109C70.151 39.9099 70.3878 39.9958 70.8363 40.0837L75.0931 40.9181C76.4826 41.1905 77.8929 41.2603 79.282 41.5326C80.0644 41.686 80.8224 41.9035 81.6056 42.057C81.9182 42.1183 82.2135 41.1244 82.3171 40.8876C82.534 40.3914 82.799 39.7499 83.17 39.3479C83.6361 38.8427 83.1082 38.7313 82.6366 38.5545C81.1085 37.9815 79.6019 37.4034 78.8243 35.8629C78.4324 35.0866 78.2351 34.292 77.9108 33.4948C77.7454 33.0884 77.2949 32.3614 76.8335 32.235C75.9869 32.0029 75.2649 31.8332 74.4087 32.2074C74.0051 32.3837 73.5622 32.3772 73.1474 32.4921C72.6356 32.6338 72.094 32.8659 71.5881 33.0667M90.1778 40.6295C90.3139 40.6743 90.4189 41.0051 90.4709 41.1214C90.6462 41.5138 90.7903 41.9511 90.9203 42.363C91.0226 42.687 91.2431 42.9635 91.357 43.2875C91.5768 43.9126 92.398 43.9293 92.919 44.0693C95.3461 44.7213 97.7581 45.5534 100.207 46.0336L102.544 46.4917C102.751 46.5322 103.093 45.8866 103.197 45.7432C103.406 45.4532 103.494 45.0412 103.485 44.6912C103.462 43.7734 103.534 42.8623 103.434 41.9512C103.372 41.3822 103.652 40.8491 103.323 40.3602C102.963 39.8242 102.101 39.3747 101.512 39.1289C101.03 38.9276 100.606 38.6545 100.208 38.3151C99.8718 38.0289 99.3338 37.6489 99.0908 37.2872C98.9704 37.1082 97.9528 35.8551 97.7847 36.1362C97.3837 36.8064 96.8203 37.4279 96.3173 38.0243C95.949 38.461 95.3842 38.9194 94.8534 39.1493C94.2684 39.4026 93.6718 39.2259 93.0542 39.2909C92.7452 39.3235 92.3733 39.2372 92.0757 39.3538C91.6836 39.5073 91.1904 39.5479 90.7802 39.6391C90.2324 39.7609 89.6785 40.0817 89.5554 40.7097M78.1949 31.8018C79.2743 31.503 79.2544 31.1799 80.0626 30.4835C80.3803 30.2098 81.7708 29.442 81.8702 28.9352C82.1491 27.5121 83.5836 26.5 83.9872 25.0789C84.3999 23.6259 85.1008 22.1462 85.6481 20.7496C86.1355 19.5054 86.8654 18.3423 87.555 17.1979C88.1958 16.1346 88.5333 14.8902 89.0702 13.765C89.4299 13.0114 89.8466 12.1772 90.0481 11.3849C90.1236 11.0883 90.3954 10.5412 90.716 10.4329C90.917 10.3651 91.0499 10.363 91.2558 10.4034C91.5633 10.4637 91.3116 10.6224 91.4093 10.8095C91.7543 11.4703 91.7603 12.0835 91.9146 12.7584C92.0266 13.2486 91.7669 13.8211 91.88 14.3158C92.0048 14.8621 91.7398 15.8749 91.6347 16.411C91.403 17.5929 91.0551 18.8123 90.9364 20.0115C90.6555 22.8511 89.9493 25.6991 89.3972 28.5157C89.1561 29.7454 89.0811 31.164 88.6201 32.3264C88.418 32.8362 88.0358 33.3891 87.9329 33.9138C87.8649 34.2609 87.5693 34.4917 87.4806 34.8403C87.3655 35.2928 86.7786 36.3315 86.4223 36.6332C86.1089 36.8985 85.6809 37.288 85.4462 37.6225C85.0688 38.1605 84.6624 38.1602 84.0814 38.3702M91.9115 14.9986C92.1601 13.7307 92.2937 12.439 92.8786 11.2928C92.8786 11.2928 93.6654 9.88452 93.7224 10.5558C93.7754 11.1791 94.1991 11.6898 94.3369 12.2931C94.9832 15.1212 94.7816 17.9515 94.8545 20.8545C94.9315 23.924 94.9876 27.0179 95.0632 30.0323C95.089 31.0582 95.3378 32.0526 95.4842 33.0251C95.6367 34.0378 96.2045 34.9589 96.4722 35.9259M89.2725 40.1999C87.9865 39.9478 88.1638 38.4797 87.717 37.6239C87.5567 37.3169 87.534 36.6392 87.6033 36.2857C87.6352 36.1233 87.5394 35.8943 87.4667 35.755C87.3843 35.5971 87.5518 35.1678 87.5854 34.9962M72.1529 34.9371C72.2254 34.8622 72.4672 34.8314 72.5679 34.8117C72.8266 34.7611 73.0707 34.6658 73.3307 34.6217C74.0638 34.4973 74.7984 34.4075 75.5461 34.3969C75.7554 34.394 76.0592 34.4288 76.2426 34.5414C76.3814 34.6266 76.4957 34.639 76.3957 34.8019C76.1503 35.2016 75.7796 35.5006 75.3997 35.7682C74.9061 36.1158 74.4055 36.4535 73.9138 36.8038C73.4187 37.1565 72.9511 37.5508 72.4456 37.8875C72.3184 37.9723 72.2064 38.0591 72.0906 38.154C72.0662 38.1741 71.9413 38.2594 72.0294 38.278C72.3777 38.3514 72.853 38.2357 73.2019 38.2178C74.8702 38.1325 76.5149 37.7772 78.1833 37.7014C78.3194 37.6952 78.5549 37.7582 78.6775 37.7141C78.813 37.6654 78.4745 38.1902 78.4532 38.2249C78.3347 38.4179 77.827 39.0714 78.019 39.3001C78.3028 39.6383 78.9945 39.4347 79.3715 39.4002C79.8988 39.352 80.314 39.3678 80.7592 39.6412M92.5738 41.3061C92.8483 41.1441 93.1795 41.0526 93.4676 40.9108C93.8295 40.7326 94.1918 40.556 94.5759 40.4334C95.2927 40.2045 96.0044 39.9895 96.7119 39.735C96.974 39.6407 97.2089 39.523 97.4773 39.4397C97.6375 39.3899 97.8676 39.3612 98.0132 39.2792C98.3512 39.0888 97.8871 39.713 97.8424 39.7757C97.6753 40.0102 97.4464 40.1772 97.232 40.365C96.9568 40.6062 96.7003 40.8512 96.395 41.0562C96.0066 41.317 95.6164 41.5623 95.2233 41.815C94.934 42.001 94.7951 42.2046 94.6207 42.4886C94.545 42.6118 94.5016 42.6428 94.6713 42.5843C95.3323 42.3565 95.9958 42.1479 96.6497 41.8959C97.708 41.4879 98.7926 41.1306 99.8383 40.6934C100.191 40.546 100.566 40.3377 100.939 40.2486C101.088 40.213 101.12 40.2378 101.092 40.3998C101.005 40.9069 100.691 41.3706 100.455 41.8176C100.169 42.358 99.8718 42.8841 99.5576 43.4057M99.5576 43.4057C99.507 43.4897 99.456 43.5736 99.4045 43.6574C99.2792 43.8614 99.5531 43.7666 99.6877 43.7344C99.8795 43.6886 100.073 43.6451 100.267 43.6398M99.5576 43.4057C99.5682 43.4081 99.5788 43.4106 99.5894 43.4131C99.824 43.4687 100.048 43.548 100.267 43.6398M99.5576 43.4057C99.0048 43.2787 98.4765 43.2619 97.9174 43.2709C97.6596 43.275 97.4611 43.3236 97.2348 43.1846M100.267 43.6398C100.352 43.6375 100.437 43.6426 100.522 43.6581C100.624 43.6765 101.062 43.7625 101.081 43.9141C101.097 44.0429 101.189 44.0774 100.983 43.9759L100.96 43.9646C100.73 43.851 100.501 43.7382 100.267 43.6398ZM15.317 14.4993C15.317 17.1763 15.289 19.8216 15.0866 22.4928C14.7609 26.7931 14.0885 31.2179 14.0885 35.5282V38.6761C14.0885 39.6454 14.1581 39.5292 15.1122 39.5292C17.3172 39.5292 19.5784 39.3775 21.7664 39.6828C24.8187 40.1087 27.8613 40.5928 30.9287 40.9112C34.6001 41.2924 38.1963 41.2968 41.8739 41.3804C46.5047 41.4857 51.205 41.7931 55.8221 42.1482C56.3173 42.1863 59.1851 42.728 59.3539 42.0714C59.7281 40.6159 59.7806 38.7563 59.8401 37.2685C59.9464 34.6119 59.8487 31.9334 59.8487 29.275C59.8487 25.2251 59.2153 21.3461 58.9273 17.3145C58.8375 16.0573 58.6017 14.7936 58.4667 13.578C58.4 12.9782 57.8412 13.1286 57.3832 13.0405C55.7724 12.7307 54.2184 12.2113 52.6059 11.8888C50.1903 11.4057 47.7658 11.1206 45.325 10.8335L45.1583 10.8139C43.579 10.6281 41.9829 10.6336 40.398 10.5068C38.1905 10.3302 36.0002 9.98387 33.7865 9.89258C31.5479 9.80027 29.295 9.58547 27.0556 9.58547C24.74 9.58547 22.2963 9.37306 20.009 9.73903C18.6761 9.95228 17.3279 10.1063 16.0165 10.3447C15.4448 10.4487 14.39 10.2567 15.1634 11.121C15.6797 11.6981 15.9929 12.8418 16.2383 13.578M67.2857 12.1732C67.0149 12.1732 66.9007 11.9879 66.7177 11.7909C65.3469 10.3146 64.3267 8.66243 63.4083 6.88137C62.7665 5.63665 62.0758 4.52815 62.0758 3.08591C62.0758 0.894336 63.612 2.56973 64.3585 3.34804C65.7382 4.78644 66.4674 6.81991 66.8925 8.73269C66.942 8.95535 67.0463 9.53086 67.2092 9.69384C67.2894 9.77399 67.298 9.42754 67.3075 9.39894C67.4536 8.96082 67.7798 8.60299 68.0502 8.24119C69.2503 6.63595 70.3971 5.01427 71.802 3.57741C72.2994 3.06872 72.7073 2.5398 73.4349 2.5398C74.2593 2.5398 74.4616 2.8173 74.4616 3.6211C74.4616 4.21884 73.8879 5.03023 73.5059 5.46149C72.5736 6.5141 71.6353 7.56148 70.677 8.5907C69.6361 9.70873 68.2835 11.0869 66.7942 11.5834M8.69903 25.542V22.5548C8.69903 21.7712 8.7325 20.4622 8.01094 19.8952C7.25119 19.2983 5.65174 18.4175 5.65174 20.0864C5.65174 20.6618 6.10502 21.1671 6.41629 21.61C6.88682 22.2796 7.26506 23.0064 7.83618 23.5979C8.13445 23.9068 8.41373 24.286 8.62258 24.6573C8.83968 25.0433 8.02411 23.9979 7.67235 23.7289C5.99618 22.4472 4.4331 21.7083 2.30955 21.7083C1.9005 21.7083 2.01465 22.1464 2.01465 22.4456C2.01465 23.1151 2.27837 23.2913 2.76282 23.7399C3.28929 24.2273 3.81673 24.6823 4.49399 24.8758C5.21776 25.0826 5.97389 25.1633 6.71119 25.3236C7.19727 25.4292 7.72279 25.7101 8.20753 25.7386C8.4446 25.7526 8.87898 25.8914 9.09223 26.0335" stroke="#F77B29" stroke-width="4" stroke-linecap="round"/>
</svg>
