<svg width="441" height="27" viewBox="0 0 441 27" fill="none" xmlns="http://www.w3.org/2000/svg">
<path d="M3.74854 13.664C13.5694 13.664 23.3902 13.664 33.2111 13.664C41.2967 13.664 45.9558 18.6787 53.7049 20.293C66.2556 22.9078 79.9317 19.1232 92.6128 19.1232C104.338 19.1232 115.585 20.0591 127.145 22.0695C134.966 23.4297 144.008 22.2428 151.928 22.2428C161.479 22.2428 170.767 23.0227 180.307 23.0227C186.539 23.0227 192.538 23.8026 198.895 23.8026C207.254 23.8026 215.41 23.0227 223.678 23.0227C230.194 23.0227 236.187 21.462 242.308 19.1665C243.717 18.6382 253.447 15.3059 254.094 16.4369C256.438 20.5393 266.296 18.1005 269.648 17.1302C275.652 15.3922 281.984 11.3243 288.409 11.3243C291.834 11.3243 292.242 11.5563 294.821 13.4907C299.488 16.9912 309.889 10.4435 313.972 8.20474C318.314 5.8237 323.098 3.52539 328.183 3.52539C331.612 3.52539 333.688 7.05786 336.762 8.59468C343.752 12.0898 351.371 11.4764 358.902 12.4941C362.918 13.0368 367.753 12.0134 371.467 13.664C374.105 14.8363 376.318 16.992 379.223 17.5201C383.592 18.3145 388.826 17.6504 393.261 17.5634C403.061 17.3713 412.334 11.3243 422.117 11.3243C426.951 11.3243 432.288 10.5444 437.368 10.5444" stroke="#FF3755" stroke-width="6" stroke-linecap="round"/>
</svg>
