<svg width="261" height="17" viewBox="0 0 261 17" fill="none" xmlns="http://www.w3.org/2000/svg">
<path d="M2.68018 10.0578H11.7107C27.2835 10.0578 42.6385 8.76238 58.1908 8.04658C73.55 7.33968 88.9189 6.26522 104.269 5.33139C129.403 3.80229 154.761 1.30284 179.952 3.21957C194.137 4.29884 208.306 5.54084 222.43 7.24208C230.21 8.17916 238.078 8.71711 245.74 10.4199C250.015 11.3697 254.507 12.3028 258.632 13.6781M11.0068 14.0402H18.8507C24.4814 14.0402 29.8498 13.3139 35.4234 12.5116C41.5989 11.6227 47.7714 11.2178 53.9672 10.5808C68.2288 9.11468 82.4378 8.30046 96.7667 7.52372C106.353 7.00404 115.878 5.35156 125.487 5.35156C129.027 5.35156 132.567 5.37145 136.107 5.35156C148.96 5.27936 161.805 4.98954 174.663 4.98954C180.417 4.98954 186.09 5.71359 191.859 5.71359C196.023 5.71359 200.178 5.352 204.308 4.80853C212.808 3.69014 222.112 5.66106 230.394 3.36042C232.912 2.66101 236.114 3.17941 238.721 3.17941C239.773 3.17941 245.094 3.82912 245.6 2.81738" stroke="#EB579B" stroke-width="4" stroke-linecap="round"/>
</svg>
