<svg width="175" height="47" viewBox="0 0 175 47" fill="none" xmlns="http://www.w3.org/2000/svg">
<path d="M2.32115 16.8071C2.21961 24.0669 1.2082 31.6886 3.61081 38.6905C3.82596 39.3175 3.70957 40.2658 4.30682 40.5533C4.55871 40.6746 4.89342 40.4286 5.07448 40.2156C6.48515 38.556 8.61531 34.1647 9.30172 32.7642C11.5232 28.2317 13.8985 23.6902 13.9281 18.5676C13.9284 18.5175 13.9285 18.2288 13.9285 17.929M13.9285 17.929C13.9285 17.3641 13.9281 16.7595 13.9281 17.6362C13.9281 17.7338 13.9282 17.8314 13.9285 17.929ZM13.9285 17.929C13.9319 19.0975 13.9626 20.2615 14.1943 21.4131C15.0724 25.7794 17.3336 30.0066 20.0694 33.4807C21.0926 34.7799 22.3548 35.9362 23.6723 36.93C24.5143 37.5652 25.9607 38.8846 27.1523 38.4756C29.2331 37.7613 29.6005 34.5365 29.6907 32.713C29.9935 26.5938 29.2825 20.1567 28.3192 14.1254C27.8008 10.8803 26.7391 7.62055 25.443 4.59625L25.4358 4.57945C24.9675 3.48676 24.438 2.25115 23.14 2.43658M46.8535 16.2548C45.4692 16.2657 43.9949 16.136 42.6979 16.7256C41.3172 17.3532 40.0446 18.3691 38.9722 19.4277C37.459 20.9215 36.6419 22.5403 35.9016 24.5455C34.7681 27.6152 33.2199 31.2268 33.2199 34.566C33.2199 35.6992 33.107 37.3735 34.1513 38.1381C35.5427 39.1568 37.6095 39.8981 39.3304 39.9089C40.9926 39.9192 41.7658 39.5901 43.0357 38.2917C46.4401 34.8105 48.4661 29.8944 50.2721 25.4667C50.6879 24.4473 51.6047 22.7026 51.5376 21.262M51.5376 21.262C51.5206 20.8987 51.4411 20.5547 51.2752 20.2466C51.0904 19.9034 50.8103 19.6248 50.6201 19.2844C50.1614 18.4636 51.3758 20.8949 51.3878 20.9221C51.4377 21.0355 51.4876 21.1488 51.5376 21.262ZM51.5376 21.262C53.2546 25.1561 54.9606 28.9477 56.9968 32.7133C58.7231 35.9061 60.3368 38.7657 62.8822 41.3111M80.253 15.5179C77.4158 15.5179 74.2401 15.1096 71.4402 15.6817C68.2833 16.3266 65.8763 18.3139 64.1833 20.9836C62.4863 23.6596 61.9654 27.086 61.9315 30.1955C61.9042 32.7066 62.059 34.7022 63.17 36.9611C64.3458 39.3519 66.596 40.4406 69.0349 41.1474C70.5026 41.5728 73.2017 42.0028 74.7258 42.2119C76.1534 42.4078 77.844 42.7209 79.3011 42.478C81.5202 42.1082 83.6721 41.1512 85.7801 40.39M97.7556 17.176C96.3136 17.176 94.5253 16.9099 93.1496 17.4831C92.2374 17.8632 91.7673 18.349 91.2765 19.2538C89.4841 22.5586 88.2181 26.2619 87.0698 29.827C86.4025 31.8985 85.226 34.8001 87.0698 36.6438C88.167 37.7411 89.6589 38.521 91.1639 38.8752C94.8229 39.7361 98.8011 39.2585 101.543 36.4801C104.846 33.1322 106.54 28.8723 106.911 24.3713M106.911 24.3713C107.081 22.3158 106.974 20.2099 106.619 18.1177C106.461 17.1818 106.225 15.0649 105.125 14.5148C104.8 14.3521 104.735 14.4891 104.767 14.8116C105.049 17.6372 105.757 20.3487 106.527 23.0819C106.649 23.5141 106.777 23.944 106.911 24.3713ZM106.911 24.3713C108.315 28.8456 110.41 33.0313 113.549 36.5415C114.894 38.0464 116.858 40.3416 118.943 40.7585M116.311 18.6493C116.311 20.8602 116.206 23.0901 116.537 25.2818C116.795 26.9992 117.03 28.7297 117.227 30.4656M117.227 30.4656C117.501 32.866 117.704 35.2767 117.806 37.677C117.863 39.017 117.585 37.4668 117.56 37.3392C117.401 36.5243 117.293 35.702 117.253 34.8724C117.182 33.4093 117.214 31.9338 117.227 30.4656ZM117.227 30.4656C117.23 30.1429 117.233 29.8206 117.233 29.4988C117.233 26.6327 116.928 23.561 117.396 20.7168C117.865 17.8742 120.076 10.8691 124.234 12.1395C125.662 12.5761 126.948 14.3489 127.898 15.3944C128.877 16.4725 129.657 17.6591 130.313 18.9563C132.033 22.3528 133.435 25.7604 134.633 29.376C135.743 32.728 136.483 35.9462 136.844 39.4477C137.015 41.1092 136.964 42.7795 137.13 44.4426M156.132 17.1756C155.273 17.23 152.264 17.4136 151.24 17.5031C150.461 17.5711 149.576 17.5465 148.978 18.1172C148.056 18.9957 147.157 20.054 146.409 21.0855C144.717 23.4155 143.86 26.3657 143.348 29.151C143.018 30.949 142.811 34.1041 144.157 35.5993C145.137 36.689 146.496 36.9003 147.954 36.6843C149.723 36.4223 151.239 34.3728 152.447 33.2452C153.998 31.7992 155.282 30.1415 156.746 28.6188C158.483 26.8125 159.27 24.7592 159.674 22.3342C159.691 22.2312 159.708 22.1299 159.725 22.0302M159.725 22.0302C159.939 20.7975 160.131 19.7991 159.643 18.5778C159.368 17.8904 159.617 20.059 159.643 20.7989C159.657 21.2111 159.686 21.6215 159.725 22.0302ZM159.725 22.0302C159.953 24.3655 160.556 26.648 161.107 28.9258C161.69 31.3369 162.627 33.4151 163.573 35.671C163.966 36.6081 164.336 37.5635 164.976 38.3629M172.951 9.99001V32.0986M172.582 39.8373C172.295 40.1659 173.259 39.4386 172.582 39.1004" stroke="#EB579B" stroke-width="4" stroke-linecap="round"/>
</svg>
